<svg width="149" height="90" viewBox="0 0 149 90" fill="none" xmlns="http://www.w3.org/2000/svg">
<path d="M40.6219 4.89482C41.2724 2.82182 42.7516 0.920528 44.7974 0.219738C46.8433 -0.481052 49.8389 0.586482 51.377 2.11925C54.1904 4.923 54.8769 14.5549 52.944 17.5987C52.5596 17.5783 51.2329 17.5633 50.8438 17.5487L50.2934 15.7141V17.5306C47.2562 17.4368 44.0942 17.4955 40.9304 17.5563C40.6469 15.4013 39.9714 6.96783 40.6219 4.89482Z" fill="#2F2E41"/>
<path d="M70.6888 36.969C70.4155 36.9325 70.1536 36.8364 69.9215 36.6877C69.6894 36.5389 69.4927 36.3411 69.3453 36.1081C69.1979 35.8751 69.1034 35.6127 69.0684 35.3392C69.0335 35.0658 69.0589 34.788 69.1429 34.5254L63.782 30.5041L67.0603 29.329L71.6484 33.3279C72.0802 33.4982 72.4344 33.821 72.6441 34.2351C72.8538 34.6492 72.9042 35.1258 72.786 35.5747C72.6677 36.0235 72.3889 36.4133 72.0023 36.6703C71.6158 36.9273 71.1485 37.0336 70.6888 36.969V36.969Z" fill="#9E616A"/>
<path d="M49.3931 15.8916L49.906 14.0771C49.906 14.0771 51.185 13.6601 53.3676 15.2429C55.5501 16.8258 69.0227 30.9548 69.0227 30.9548L65.0117 31.5156L52.7528 22.7585L49.3931 15.8916Z" fill="#E6E6E6"/>
<path d="M133.325 85.197C141.529 81.0076 148.061 72.6075 147.881 63.3973C140.211 69.8413 130.508 73.3645 120.49 73.3436C116.626 73.3215 112.331 72.8947 109.329 75.326C107.46 76.8387 106.481 79.2351 106.191 81.6214C105.901 84.0079 106.226 86.4214 106.551 88.8033L106.35 89.3685C115.54 89.9991 125.12 89.3864 133.325 85.197Z" fill="#F0F0F0"/>
<path d="M147.689 63.3749C144.115 70.0195 138.396 75.5656 131.577 78.8218C130.103 79.5259 128.546 80.1117 126.918 80.3247C125.33 80.5202 123.719 80.2869 122.251 79.6489C120.871 79.0816 119.525 78.3414 118.031 78.1195C116.456 77.8855 114.95 78.4013 113.729 79.3966C112.235 80.6143 111.268 82.2962 110.379 83.9738C109.392 85.8365 108.396 87.7868 106.653 89.0593C106.442 89.2135 106.694 89.5322 106.905 89.3783C109.937 87.1643 110.668 83.1747 113.151 80.4966C114.309 79.247 115.852 78.339 117.605 78.4792C119.138 78.6019 120.527 79.3639 121.919 79.9505C123.381 80.5663 124.864 80.9072 126.458 80.7813C128.089 80.6525 129.672 80.1263 131.157 79.463C134.515 77.934 137.612 75.8865 140.333 73.3956C143.455 70.5699 146.071 67.2311 148.067 63.5234C148.191 63.2939 147.812 63.1469 147.689 63.3749V63.3749Z" fill="white"/>
<path d="M133.849 77.8804C134.564 78.9556 135.637 79.7418 136.878 80.0986C138.119 80.4554 139.446 80.3595 140.623 79.8281C140.86 79.7198 140.703 79.3453 140.465 79.4538C139.37 79.9507 138.134 80.0399 136.979 79.7053C135.825 79.3707 134.828 78.6343 134.168 77.6292C134.024 77.4109 133.706 77.6634 133.849 77.8804V77.8804Z" fill="white"/>
<path d="M122.913 80.0288C123.411 77.4371 124.868 75.1284 126.993 73.563C127.203 73.4081 126.952 73.0893 126.742 73.2441C124.533 74.8772 123.022 77.2829 122.51 79.981C122.461 80.2382 122.865 80.2846 122.913 80.0288H122.913Z" fill="white"/>
<path d="M142.965 70.3472C142.602 69.9888 142.334 69.5458 142.184 69.058C142.034 68.5702 142.008 68.0528 142.108 67.5524C142.16 67.2959 141.756 67.2498 141.705 67.5046C141.597 68.058 141.627 68.6293 141.791 69.1686C141.955 69.7079 142.249 70.1989 142.646 70.5985C142.681 70.6393 142.729 70.6655 142.782 70.6718C142.835 70.6781 142.889 70.664 142.931 70.6323C142.974 70.5988 143.001 70.5501 143.007 70.4967C143.013 70.4433 142.998 70.3896 142.965 70.3472H142.965Z" fill="white"/>
<path d="M123.461 43.9933C123.424 44.1526 123.387 44.3118 123.347 44.4723C122.839 46.6103 122.158 48.7035 121.311 50.7312C121.248 50.889 121.181 51.048 121.114 51.2036C119.021 56.0671 116.044 60.4998 112.333 64.2763C110.855 65.7777 109.265 67.1645 107.576 68.4247C105.244 70.1649 102.577 71.8662 101.003 74.2062C100.836 74.4485 100.684 74.7009 100.548 74.962L105.676 89.0787C105.703 89.1049 105.728 89.1325 105.756 89.1588L105.935 89.7318C106.026 89.6729 106.12 89.6099 106.212 89.5509C106.265 89.517 106.317 89.4799 106.37 89.446C106.406 89.4223 106.441 89.3985 106.474 89.3792C106.486 89.3714 106.497 89.3634 106.506 89.3568C106.539 89.3374 106.568 89.316 106.597 89.2978C107.122 88.9468 107.646 88.5914 108.168 88.2317C108.171 88.2305 108.171 88.2305 108.173 88.2262C112.143 85.4754 115.919 82.3689 119.102 78.7883C119.198 78.6805 119.297 78.5717 119.391 78.4575C120.817 76.8356 122.108 75.0998 123.251 73.2675C123.874 72.2621 124.446 71.2259 124.964 70.1628C126.297 67.4133 127.189 64.4712 127.608 61.4444C128.443 55.4103 127.338 49.1766 123.739 44.3587C123.647 44.2356 123.556 44.1154 123.461 43.9933Z" fill="#F0F0F0"/>
<path d="M123.293 44.0902C124.44 51.5472 123.212 59.4189 119.729 66.124C118.976 67.5736 118.085 68.9786 116.914 70.1286C115.764 71.2409 114.336 72.0248 112.781 72.3989C111.337 72.7769 109.817 72.9963 108.49 73.7186C107.092 74.48 106.2 75.7982 105.824 77.328C105.365 79.1997 105.605 81.125 105.905 82.9996C106.239 85.081 106.618 87.2376 105.993 89.3031C105.917 89.5533 106.31 89.6563 106.385 89.4064C107.474 85.8129 105.655 82.1877 106.025 78.5546C106.198 76.8593 106.882 75.2057 108.367 74.2622C109.665 73.4372 111.232 73.2095 112.697 72.8395C114.236 72.4509 115.625 71.8304 116.822 70.7702C118.046 69.6857 118.993 68.3126 119.78 66.8886C121.54 63.6462 122.78 60.1471 123.453 56.5197C124.245 52.384 124.323 48.1433 123.684 43.9812C123.645 43.7237 123.254 43.8342 123.293 44.0902V44.0902Z" fill="white"/>
<path d="M120.976 64.0042C122.194 64.4325 123.525 64.4139 124.73 63.9518C125.936 63.4896 126.938 62.614 127.557 61.4813C127.682 61.2517 127.331 61.0473 127.206 61.2773C126.631 62.3331 125.698 63.1486 124.574 63.5767C123.451 64.0048 122.211 64.0171 121.08 63.6116C120.833 63.5238 120.732 63.9169 120.976 64.0042Z" fill="white"/>
<path d="M113.538 72.3036C112.375 69.9344 112.148 67.214 112.902 64.6848C112.977 64.4343 112.584 64.3313 112.51 64.5815C111.73 67.2148 111.972 70.0453 113.187 72.5082C113.303 72.7428 113.653 72.537 113.538 72.3036Z" fill="white"/>
<path d="M123.719 52.5012C123.213 52.4337 122.732 52.2416 122.319 51.9422C121.906 51.6428 121.574 51.2455 121.352 50.7859C121.239 50.5499 120.889 50.756 121.001 50.9904C121.248 51.4971 121.616 51.9354 122.072 52.2672C122.528 52.599 123.058 52.8141 123.616 52.8938C123.668 52.9057 123.722 52.8974 123.768 52.8705C123.815 52.8437 123.849 52.8003 123.864 52.7492C123.877 52.6971 123.87 52.6419 123.843 52.5954C123.815 52.549 123.771 52.5151 123.719 52.5012V52.5012Z" fill="white"/>
<path d="M34.6426 18.5792C27.6142 12.6237 17.3451 9.83426 8.91565 13.5505C17.8185 18.1442 24.8095 25.7389 28.6517 34.9906C30.1205 38.564 31.3821 42.6914 34.783 44.5249C36.8991 45.6658 39.4879 45.6458 41.8017 44.9935C44.1156 44.3411 46.2173 43.1107 48.29 41.8928L48.8893 41.8609C45.9286 33.1376 41.6709 24.5348 34.6426 18.5792Z" fill="#F0F0F0"/>
<path d="M8.96894 13.7363C16.478 14.4727 23.8004 17.6127 29.4334 22.649C30.6512 23.7379 31.7919 24.9484 32.6158 26.3682C33.4084 27.7582 33.8142 29.3351 33.7912 30.9351C33.7996 32.4273 33.6355 33.9546 34.0066 35.4188C34.3977 36.9621 35.454 38.1523 36.843 38.8954C38.5425 39.8046 40.4674 40.0489 42.3581 40.2224C44.4573 40.415 46.6408 40.5819 48.4869 41.6997C48.7106 41.8352 48.9077 41.4802 48.6843 41.3449C45.4724 39.4 41.5094 40.264 38.0811 39.0051C36.4814 38.4177 35.049 37.3447 34.5027 35.673C34.025 34.2112 34.1929 32.636 34.1974 31.125C34.202 29.5385 33.9451 28.039 33.2145 26.6168C32.4672 25.1619 31.3715 23.9042 30.1868 22.789C27.4816 20.2802 24.3987 18.2123 21.0511 16.6611C17.2403 14.8695 13.1511 13.743 8.96037 13.3303C8.70097 13.3049 8.71127 13.711 8.96897 13.7363L8.96894 13.7363Z" fill="white"/>
<path d="M27.6887 20.9154C28.4054 19.8416 28.7171 18.5479 28.5681 17.2655C28.4191 15.9831 27.819 14.7955 26.8751 13.9146C26.6835 13.7371 26.3985 14.0264 26.5904 14.2042C27.4709 15.0229 28.0297 16.1292 28.1661 17.3237C28.3024 18.5181 28.0073 19.722 27.3339 20.718C27.1878 20.9346 27.5435 21.1307 27.6887 20.9154V20.9154Z" fill="white"/>
<path d="M33.8865 30.1778C31.3029 30.7172 28.611 30.2629 26.3475 28.9058C26.1234 28.7711 25.9262 29.1261 26.1501 29.2605C28.5082 30.6685 31.3105 31.1354 33.9978 30.5683C34.2539 30.5141 34.1412 30.1239 33.8865 30.1778V30.1778Z" fill="white"/>
<path d="M17.2236 15.4076C17.0329 15.8808 16.7276 16.2993 16.3351 16.6254C15.9426 16.9516 15.4753 17.1751 14.9751 17.276C14.7185 17.327 14.8314 17.7171 15.0864 17.6665C15.6385 17.5524 16.1543 17.3049 16.5887 16.9456C17.0231 16.5862 17.3629 16.126 17.5784 15.605C17.6028 15.5576 17.6083 15.5027 17.5937 15.4514C17.5791 15.4001 17.5455 15.3563 17.4997 15.3289C17.4526 15.303 17.3972 15.2967 17.3455 15.3115C17.2938 15.3262 17.25 15.3607 17.2236 15.4076V15.4076Z" fill="white"/>
<path d="M0.422913 43.5622C0.58408 43.5349 0.745248 43.5077 0.908863 43.4828C3.07754 43.1275 5.27151 42.949 7.46911 42.9489C7.63901 42.9462 7.81124 42.9461 7.98087 42.9482C13.2754 43.0046 18.5134 44.0434 23.4287 46.0119C25.3839 46.797 27.2765 47.7297 29.0901 48.8019C31.5948 50.2828 34.1927 52.0878 36.9589 52.6386C37.2468 52.6993 37.5383 52.7421 37.8315 52.7668L48.8816 42.5945C48.8951 42.5588 48.911 42.5254 48.9247 42.4896L49.3844 42.1036C49.2948 42.0418 49.2004 41.9796 49.1108 41.9178C49.0589 41.8817 49.0046 41.8479 48.9527 41.8118C48.9173 41.7884 48.8818 41.7652 48.8513 41.7421C48.8395 41.7343 48.8277 41.7266 48.8182 41.7213C48.7876 41.6982 48.7568 41.68 48.7285 41.6595C48.2022 41.3103 47.6724 40.9643 47.1394 40.6213C47.137 40.6188 47.137 40.6188 47.1322 40.6185C43.0636 38.0156 38.7419 35.7296 34.2106 34.1721C34.0743 34.1253 33.9357 34.0758 33.7943 34.0337C31.7479 33.3429 29.6485 32.8206 27.517 32.472C26.3493 32.2848 25.1728 32.1568 23.9921 32.0886C20.941 31.9182 17.8822 32.2288 14.9276 33.0089C9.03797 34.5649 3.71155 37.9871 0.652733 43.1643C0.574583 43.2968 0.498745 43.4272 0.422913 43.5622Z" fill="#F0F0F0"/>
<path d="M0.576808 43.6796C7.01574 39.7469 14.7528 37.8456 22.2828 38.4755C23.9108 38.6117 25.5504 38.8915 27.0631 39.529C28.5329 40.1618 29.8063 41.1765 30.7512 42.4678C31.6565 43.6542 32.445 44.9725 33.6229 45.9181C34.8644 46.9149 36.4244 47.2294 37.9809 46.9864C39.8853 46.6891 41.5693 45.7253 43.1833 44.7256C44.9754 43.6156 46.8193 42.4343 48.9663 42.2154C49.2265 42.1889 49.1701 41.7868 48.9104 41.8133C45.1748 42.1941 42.5308 45.2698 39.0355 46.3286C37.4045 46.8227 35.6148 46.8283 34.1721 45.8224C32.9105 44.9429 32.0961 43.5841 31.19 42.375C30.2385 41.1054 29.1305 40.0629 27.6908 39.3671C26.2181 38.6554 24.586 38.3109 22.9687 38.1337C19.2981 37.7592 15.5916 37.9641 11.9847 38.741C7.86328 39.6048 3.92001 41.1672 0.325494 43.3606C0.103072 43.4965 0.355829 43.8146 0.576799 43.6796L0.576808 43.6796Z" fill="white"/>
<path d="M19.8461 38.1415C19.7718 36.8526 19.2418 35.6321 18.3507 34.6979C17.4596 33.7637 16.2654 33.1767 14.9814 33.0417C14.7215 33.0152 14.6682 33.4178 14.9284 33.4443C16.1243 33.5678 17.2367 34.1148 18.0647 34.9864C18.8927 35.858 19.3819 36.9969 19.444 38.1975C19.4577 38.4584 19.8598 38.4009 19.8461 38.1415V38.1415Z" fill="white"/>
<path d="M30.3715 41.8058C28.6334 43.7919 26.2106 45.0498 23.5861 45.3289C23.3261 45.3564 23.3824 45.7585 23.6421 45.7311C26.3726 45.4355 28.8913 44.1213 30.6954 42.0506C30.8673 41.8531 30.5424 41.6094 30.3715 41.8058V41.8058Z" fill="white"/>
<path d="M8.17408 40.0444C8.30673 40.5371 8.31493 41.0551 8.19793 41.5518C8.08093 42.0484 7.8424 42.5083 7.50376 42.89C7.32951 43.0852 7.65459 43.3287 7.8277 43.1347C8.19988 42.7113 8.4627 42.2031 8.59318 41.6547C8.72366 41.1062 8.71784 40.5342 8.57623 39.9885C8.56719 39.9359 8.53848 39.8888 8.49593 39.8566C8.45339 39.8245 8.4002 39.8097 8.34717 39.8154C8.29396 39.8231 8.24593 39.8514 8.21352 39.8943C8.18111 39.9372 8.16693 39.9912 8.17408 40.0444V40.0444Z" fill="white"/>
<path d="M109.313 54.2263C109.284 53.7135 109.074 53.2276 108.721 52.8547C108.368 52.4818 107.894 52.2461 107.383 52.1893L75.9719 48.6451C75.6707 48.6107 75.3656 48.6398 75.0763 48.7303L67.8705 50.9863L63.7361 52.282L56.1061 54.6703C55.6455 54.815 55.246 55.1085 54.9702 55.5047C54.6944 55.9009 54.5579 56.3775 54.5821 56.8596L55.87 87.4728C55.8975 87.9703 56.0937 88.4436 56.4265 88.8145C56.7592 89.1855 57.2085 89.4319 57.7001 89.513L89.7726 89.5829C89.9232 89.6074 90.076 89.6155 90.2284 89.6072C90.4504 89.5964 90.6695 89.5516 90.878 89.4744L109.672 89.3446C110.11 89.1833 110.485 88.8852 110.74 88.4944C110.995 88.1036 111.117 87.641 111.088 87.1752L109.313 54.2263Z" fill="white"/>
<path d="M58.0028 87.6305L90.0751 87.6998C90.122 87.7077 90.1701 87.7033 90.2147 87.6869L109.007 87.558C109.062 87.5381 109.109 87.5009 109.141 87.4518C109.173 87.4028 109.188 87.3446 109.184 87.2862L107.411 54.3365C107.407 54.2727 107.381 54.2124 107.337 54.166C107.293 54.1195 107.234 54.0898 107.171 54.0818L106.959 54.0569L75.7578 50.5402C75.7435 50.5383 75.7291 50.5379 75.7147 50.539C75.6912 50.5396 75.6679 50.5433 75.6454 50.55L58.0702 56.0536L56.6753 56.4892C56.6182 56.5078 56.5688 56.5446 56.5346 56.5939C56.5004 56.6432 56.4832 56.7024 56.4857 56.7624L57.7742 87.3745C57.7773 87.4368 57.8017 87.4962 57.8433 87.5428C57.8849 87.5894 57.9412 87.6204 58.0028 87.6305V87.6305Z" fill="#0AFF84"/>
<path d="M58.0702 56.0536L75.6454 50.55C75.6679 50.5433 75.6912 50.5396 75.7147 50.539C75.729 50.5379 75.7435 50.5383 75.7577 50.5402L106.959 54.0569L99.4448 56.5021L96.6322 57.4157L88.6296 60.018C88.6059 60.0242 88.5819 60.029 88.5576 60.0323C88.5422 60.031 88.5267 60.0297 88.5082 60.0288L58.0702 56.0536Z" fill="#2F2E41"/>
<path d="M57.7 89.5146L89.7723 89.584C89.9232 89.6081 90.0763 89.6153 90.2287 89.6054C90.451 89.5953 90.6704 89.5516 90.8795 89.4757L109.671 89.3468C110.11 89.185 110.484 88.8866 110.739 88.4956C110.994 88.1045 111.117 87.6418 111.089 87.1757L109.313 54.2263C109.29 53.8404 109.166 53.4673 108.953 53.1449C108.924 53.1023 108.894 53.0596 108.862 53.0204C108.641 52.7315 108.35 52.504 108.017 52.3595C107.815 52.2712 107.602 52.2139 107.384 52.1895L107.346 52.1846L75.9735 48.6445C75.8457 48.6318 75.7171 48.628 75.5888 48.6333C75.4143 48.6453 75.242 48.6784 75.0755 48.7319L67.8704 50.9853L63.7369 52.2831L56.1055 54.6711C55.7932 54.7685 55.5071 54.9354 55.2687 55.1594C55.2498 55.1741 55.2321 55.1905 55.2161 55.2084C55.2044 55.2201 55.1935 55.2326 55.1835 55.2458C54.9792 55.4596 54.8206 55.7127 54.7173 55.9898C54.614 56.2668 54.5682 56.562 54.5826 56.8573L55.8684 87.4728C55.8959 87.9707 56.0924 88.4443 56.4254 88.8155C56.7584 89.1868 57.208 89.4333 57.7 89.5146V89.5146ZM55.1257 56.8321C55.1109 56.5259 55.1836 56.2218 55.3352 55.9554C55.3802 55.8705 55.4338 55.7904 55.495 55.7163C55.6616 55.511 55.8758 55.3496 56.1191 55.2462C56.167 55.2252 56.2162 55.2073 56.2663 55.1925L69.1156 51.1711L75.2391 49.25C75.2804 49.236 75.3194 49.2285 75.3581 49.218C75.4523 49.1959 75.5484 49.1829 75.6451 49.179C75.7332 49.1719 75.8219 49.1741 75.9096 49.1856L107.32 52.7306C107.345 52.7339 107.367 52.7375 107.391 52.7408C107.679 52.7834 107.95 52.9042 108.174 53.0899C108.35 53.2312 108.493 53.408 108.596 53.6087C108.699 53.8094 108.758 54.0295 108.77 54.2547L110.543 87.2074C110.565 87.5563 110.473 87.9029 110.282 88.1958C110.092 88.4888 109.812 88.7127 109.484 88.8345L90.6891 88.9638C90.4234 89.0613 90.1371 89.0887 89.8577 89.0436L57.7858 88.9773C57.4176 88.9155 57.0813 88.7304 56.8321 88.4524C56.583 88.1744 56.4357 87.8199 56.4145 87.4472L55.1257 56.8321Z" fill="#3F3D56"/>
<path d="M90.3259 89.6659C90.2542 89.6695 90.184 89.6447 90.1305 89.5968C90.077 89.5489 90.0446 89.4818 90.0403 89.4101L88.2727 59.7751C88.2684 59.703 88.293 59.6321 88.3409 59.5781C88.3889 59.5241 88.4563 59.4913 88.5284 59.487L88.5309 59.4869C88.6026 59.4832 88.6729 59.5081 88.7264 59.556C88.7798 59.6039 88.8122 59.671 88.8165 59.7427L90.5841 89.3777C90.5884 89.4498 90.5639 89.5207 90.5159 89.5747C90.468 89.6287 90.4005 89.6615 90.3284 89.6658L90.3259 89.6659Z" fill="#3F3D56"/>
<path d="M101.414 87.6613L98.3369 87.6404L95.417 57.2379C95.417 57.2379 99.1133 55.7261 99.2753 55.9834C99.3739 56.1366 101.403 87.4728 101.414 87.6613Z" fill="#3F3D56"/>
<path d="M108.333 53.3492L108.111 53.1673C107.882 52.9793 107.604 52.862 107.31 52.8299L75.8998 49.285C75.7265 49.2659 75.5513 49.2756 75.3811 49.3137L75.2635 49.3428L75.2397 48.8729L80.4488 43.1108C80.759 42.7692 81.1439 42.5038 81.5734 42.3353C82.003 42.1668 82.4656 42.0998 82.9253 42.1394L104.159 44.0179C104.794 44.0719 105.394 44.3283 105.872 44.7492C106.349 45.1701 106.679 45.7334 106.812 46.3559L108.333 53.3492Z" fill="#3F3D56"/>
<path d="M60.8585 76.5358C60.892 76.5303 60.926 76.5286 60.9599 76.5307L70.6272 77.1166C70.7482 77.1239 70.8614 77.179 70.9418 77.2697C71.0222 77.3604 71.0633 77.4794 71.056 77.6004C71.0486 77.7215 70.9936 77.8346 70.9028 77.915C70.8121 77.9954 70.6931 78.0365 70.5721 78.0292L60.9048 77.4433C60.7925 77.4365 60.6868 77.3886 60.6076 77.3087C60.5285 77.2288 60.4816 77.1225 60.4759 77.0102C60.4701 76.8979 60.506 76.7875 60.5766 76.6999C60.6472 76.6124 60.7475 76.554 60.8585 76.5358V76.5358Z" fill="white"/>
<path d="M61.0204 79.9317C61.0539 79.9263 61.0879 79.9246 61.1218 79.9266L70.7891 80.5125C70.9101 80.5198 71.0233 80.5749 71.1037 80.6656C71.1841 80.7564 71.2252 80.8754 71.2179 80.9964C71.2106 81.1174 71.1555 81.2306 71.0648 81.311C70.974 81.3914 70.855 81.4324 70.734 81.4251L61.0667 80.8393C60.9545 80.8324 60.8487 80.7845 60.7696 80.7046C60.6904 80.6247 60.6435 80.5185 60.6378 80.4062C60.6321 80.2939 60.6679 80.1834 60.7385 80.0959C60.8091 80.0083 60.9094 79.9499 61.0204 79.9317V79.9317Z" fill="white"/>
<path d="M107.259 39.3824L88.6116 49.5349L80.9503 35.4641L99.5979 25.3116L107.259 39.3824Z" fill="white"/>
<path d="M107.259 39.3824L88.6116 49.5349L80.9503 35.4641L99.5979 25.3116L107.259 39.3824ZM88.7679 49.0052L106.73 39.2262L99.4416 25.8413L81.48 35.6203L88.7679 49.0052Z" fill="#E6E6E6"/>
<path d="M99.2249 30.483L85.4964 37.9573L85.9947 38.8725L99.7232 31.3982L99.2249 30.483Z" fill="#0AFF84"/>
<path d="M100.72 33.2284L86.9913 40.7027L87.4896 41.6179L101.218 34.1436L100.72 33.2284Z" fill="#0AFF84"/>
<path d="M102.215 35.974L88.4863 43.4482L88.9846 44.3634L102.713 36.8892L102.215 35.974Z" fill="#0AFF84"/>
<path d="M64.7655 26.9827C64.5728 26.7669 64.5072 26.7449 64.4388 26.7921L53.827 34.1134C53.7594 34.16 53.7553 34.229 53.8867 34.4827C54.2335 35.0195 54.6574 35.6535 55.1214 36.3259L68.7749 56.1139C70.0547 57.9687 71.1666 59.429 71.2532 59.3693L81.865 52.048C81.9516 51.9882 80.981 50.4304 79.7013 48.5756L66.0478 28.7876C65.5849 28.1166 65.1437 27.4968 64.7655 26.9827Z" fill="white"/>
<path d="M66.1792 28.8349C65.9379 28.4966 65.7081 28.183 65.5027 27.9097C65.2555 27.5823 65.0529 27.3228 64.8991 27.1373C64.8484 27.0769 64.8049 27.0251 64.7655 26.9827C64.5728 26.7669 64.5072 26.7449 64.4388 26.7921L53.827 34.1134C53.7594 34.16 53.7553 34.229 53.8867 34.4827C53.9136 34.5348 53.9469 34.5959 53.9864 34.6663C54.1047 34.8751 54.2754 35.1566 54.4943 35.5047C54.8605 36.0843 55.3422 36.8084 55.8502 37.5447L68.8158 56.3358C69.4046 57.1891 69.9755 57.9807 70.423 58.5659C71.1681 59.5401 71.2228 59.5024 71.3056 59.4453L81.9174 52.1239C82.0002 52.0668 82.0549 52.029 81.4086 50.9866C81.0204 50.3606 80.4829 49.5459 79.8942 48.6926L66.9286 29.9015C66.6743 29.533 66.4207 29.1719 66.1792 28.8349ZM56.0022 37.4399C55.4958 36.7059 55.0151 35.9832 54.6509 35.4067C54.4329 35.0614 54.264 34.7809 54.1478 34.5751C54.082 34.4662 54.0246 34.3525 53.9759 34.2349L64.4996 26.9744C64.5922 27.0616 64.6781 27.1557 64.7566 27.2559C64.8328 27.3468 64.9211 27.4564 65.0215 27.5845C65.1213 27.713 65.2327 27.8587 65.3555 28.0214C65.7652 28.5665 66.2696 29.2716 66.7766 30.0064L79.7422 48.7974C80.9727 50.5808 81.6816 51.7561 81.7692 52.0018L71.2441 59.2634C71.0455 59.0942 70.1983 58.0143 68.9678 56.2309L56.0022 37.4399Z" fill="#E4E4E4"/>
<path d="M62.4967 33.0692L60.4876 34.4553C60.3868 34.5249 60.3178 34.6316 60.2958 34.7519C60.2737 34.8723 60.3003 34.9966 60.3698 35.0974L61.5704 36.8374C61.64 36.938 61.7467 37.0069 61.8671 37.029C61.9874 37.0511 62.1116 37.0245 62.2125 36.9552L64.2216 35.5691C64.3221 35.4993 64.3909 35.3926 64.4129 35.2723C64.435 35.152 64.4086 35.0279 64.3394 34.927L63.1388 33.1869C63.0691 33.0863 62.9624 33.0175 62.8421 32.9954C62.7217 32.9733 62.5975 32.9998 62.4967 33.0692V33.0692Z" fill="#0AFF84"/>
<path d="M67.5021 34.9836L60.4998 39.8147C60.4771 39.8303 60.4578 39.8502 60.4428 39.8733C60.4279 39.8965 60.4176 39.9223 60.4127 39.9493C60.4077 39.9764 60.4081 40.0042 60.4139 40.0311C60.4196 40.058 60.4307 40.0835 60.4463 40.1062C60.4619 40.1288 60.4818 40.1482 60.505 40.1631C60.5281 40.1781 60.5539 40.1883 60.581 40.1933C60.608 40.1982 60.6358 40.1978 60.6627 40.1921C60.6896 40.1863 60.7151 40.1753 60.7378 40.1597L67.7401 35.3286C67.7628 35.313 67.7821 35.293 67.7971 35.2699C67.812 35.2468 67.8223 35.221 67.8272 35.1939C67.8322 35.1668 67.8318 35.1391 67.826 35.1122C67.8203 35.0852 67.8092 35.0597 67.7936 35.0371C67.778 35.0144 67.758 34.9951 67.7349 34.9801C67.7118 34.9652 67.686 34.9549 67.6589 34.95C67.6319 34.945 67.6041 34.9454 67.5772 34.9512C67.5503 34.957 67.5248 34.968 67.5021 34.9836Z" fill="#E4E4E4"/>
<path d="M63.7172 38.7882L61.0576 40.6231C61.0349 40.6388 61.0156 40.6587 61.0006 40.6818C60.9857 40.7049 60.9754 40.7307 60.9704 40.7578C60.9655 40.7849 60.9659 40.8127 60.9717 40.8396C60.9774 40.8665 60.9885 40.892 61.0041 40.9146C61.0197 40.9373 61.0396 40.9566 61.0628 40.9716C61.0859 40.9865 61.1117 40.9968 61.1388 41.0018C61.1658 41.0067 61.1936 41.0063 61.2205 41.0005C61.2474 40.9948 61.2729 40.9837 61.2956 40.9681L63.9552 39.1332C64.0009 39.1016 64.0323 39.0532 64.0423 38.9985C64.0523 38.9439 64.0402 38.8875 64.0087 38.8417C63.9771 38.796 63.9287 38.7646 63.874 38.7546C63.8193 38.7446 63.7629 38.7567 63.7172 38.7882V38.7882Z" fill="#E4E4E4"/>
<path d="M67.687 40.5916L65.6779 41.9778C65.5772 42.0473 65.5082 42.154 65.4861 42.2744C65.464 42.3948 65.4906 42.519 65.5601 42.6198L66.7607 44.3599C66.8304 44.4605 66.9371 44.5294 67.0574 44.5514C67.1778 44.5735 67.302 44.547 67.4028 44.4777L69.412 43.0915C69.5124 43.0218 69.5812 42.9151 69.6033 42.7948C69.6254 42.6745 69.5989 42.5503 69.5298 42.4495L68.3291 40.7094C68.2595 40.6088 68.1528 40.5399 68.0324 40.5178C67.9121 40.4958 67.7879 40.5223 67.687 40.5916V40.5916Z" fill="#0AFF84"/>
<path d="M72.6925 42.5061L65.6902 47.3372C65.6445 47.3688 65.6131 47.4172 65.6031 47.4719C65.5931 47.5265 65.6052 47.583 65.6367 47.6287C65.6683 47.6744 65.7168 47.7058 65.7714 47.7158C65.8261 47.7258 65.8825 47.7137 65.9283 47.6822L72.9306 42.8511C72.9532 42.8355 72.9726 42.8155 72.9875 42.7924C73.0025 42.7693 73.0127 42.7435 73.0177 42.7164C73.0227 42.6894 73.0222 42.6616 73.0165 42.6347C73.0107 42.6078 72.9997 42.5823 72.9841 42.5596C72.9684 42.537 72.9485 42.5176 72.9254 42.5027C72.9023 42.4877 72.8764 42.4775 72.8494 42.4725C72.8223 42.4675 72.7945 42.4679 72.7676 42.4737C72.7407 42.4795 72.7152 42.4905 72.6925 42.5061V42.5061Z" fill="#E4E4E4"/>
<path d="M68.9076 46.3108L66.248 48.1457C66.2022 48.1772 66.1709 48.2257 66.1609 48.2803C66.1509 48.335 66.1629 48.3914 66.1945 48.4372C66.2261 48.4829 66.2745 48.5143 66.3292 48.5243C66.3839 48.5343 66.4403 48.5222 66.486 48.4907L69.1456 46.6557C69.1683 46.6401 69.1876 46.6202 69.2026 46.5971C69.2175 46.574 69.2278 46.5481 69.2327 46.5211C69.2377 46.494 69.2373 46.4662 69.2315 46.4393C69.2257 46.4124 69.2147 46.3869 69.1991 46.3642C69.1835 46.3416 69.1635 46.3222 69.1404 46.3073C69.1173 46.2923 69.0915 46.2821 69.0644 46.2771C69.0373 46.2722 69.0096 46.2726 68.9827 46.2783C68.9557 46.2841 68.9302 46.2951 68.9076 46.3108V46.3108Z" fill="#E4E4E4"/>
<path d="M72.8775 48.1142L70.8684 49.5003C70.7676 49.5699 70.6986 49.6766 70.6766 49.797C70.6545 49.9174 70.6811 50.0416 70.7506 50.1424L71.9512 51.8825C72.0208 51.9831 72.1275 52.0519 72.2479 52.074C72.3682 52.0961 72.4924 52.0696 72.5933 52.0003L74.6024 50.6141C74.7029 50.5443 74.7717 50.4377 74.7937 50.3174C74.8158 50.1971 74.7894 50.0729 74.7202 49.972L73.5196 48.232C73.4499 48.1314 73.3432 48.0625 73.2229 48.0404C73.1025 48.0183 72.9783 48.0449 72.8775 48.1142V48.1142Z" fill="#0AFF84"/>
<path d="M77.8829 50.0287L70.8806 54.8597C70.858 54.8753 70.8386 54.8953 70.8237 54.9184C70.8087 54.9415 70.7985 54.9673 70.7935 54.9944C70.7885 55.0214 70.789 55.0492 70.7947 55.0761C70.8005 55.103 70.8115 55.1286 70.8271 55.1512C70.8428 55.1739 70.8627 55.1932 70.8858 55.2082C70.9089 55.2231 70.9347 55.2333 70.9618 55.2383C70.9889 55.2433 71.0167 55.2429 71.0436 55.2371C71.0705 55.2313 71.096 55.2203 71.1186 55.2047L78.121 50.3736C78.1667 50.3421 78.1981 50.2936 78.2081 50.239C78.2181 50.1843 78.206 50.1279 78.1745 50.0821C78.1429 50.0364 78.0944 50.005 78.0398 49.995C77.9851 49.985 77.9287 49.9971 77.8829 50.0286V50.0287Z" fill="#E4E4E4"/>
<path d="M74.098 53.8332L71.4384 55.6681C71.4158 55.6838 71.3964 55.7037 71.3815 55.7268C71.3665 55.7499 71.3563 55.7757 71.3513 55.8028C71.3463 55.8299 71.3468 55.8577 71.3525 55.8846C71.3583 55.9115 71.3693 55.937 71.3849 55.9596C71.4006 55.9823 71.4205 56.0016 71.4436 56.0166C71.4667 56.0315 71.4925 56.0418 71.5196 56.0467C71.5467 56.0517 71.5745 56.0513 71.6014 56.0455C71.6283 56.0398 71.6538 56.0287 71.6764 56.0131L74.336 54.1782C74.3818 54.1466 74.4131 54.0982 74.4232 54.0435C74.4332 53.9889 74.4211 53.9324 74.3895 53.8867C74.358 53.841 74.3095 53.8096 74.2548 53.7996C74.2002 53.7896 74.1438 53.8017 74.098 53.8332V53.8332Z" fill="#E4E4E4"/>
<path d="M96.3725 35.8162C96.3305 34.7863 96.2665 34.1223 96.1925 34.1223H69.113C69.039 34.1223 68.975 34.7863 68.933 35.8162C68.905 36.5342 68.887 37.4301 68.887 38.4001V57.2669L68.997 57.2809L73.4489 57.8608L78.0888 58.4688L80.2088 58.7448L84.7427 59.3367L88.5086 59.8287C88.5266 59.8307 88.5426 59.8307 88.5586 59.8327C88.5826 59.8287 88.6066 59.8247 88.6286 59.8187L90.1106 59.3367L91.8206 58.7808L96.3085 57.3209L96.4185 57.2849V38.4001C96.4185 37.4301 96.4005 36.5342 96.3725 35.8162Z" fill="white"/>
<path d="M96.4626 35.3703C96.4486 35.1023 96.4346 34.8863 96.4186 34.7143C96.4074 34.5346 96.382 34.3561 96.3426 34.1804C96.2986 34.0124 96.2486 34.0124 96.1926 34.0124H69.113C69.057 34.0124 69.007 34.0124 68.963 34.1804C68.9243 34.365 68.8989 34.5521 68.887 34.7403C68.873 34.9083 68.859 35.1163 68.845 35.3703C68.801 36.1803 68.777 37.2562 68.777 38.4001V57.2509L68.887 57.2669L68.997 57.2809V38.4001C68.997 37.4042 69.015 36.5602 69.041 35.8943C69.0459 35.3371 69.0907 34.7811 69.175 34.2304H96.1326C96.217 34.7804 96.2618 35.3358 96.2666 35.8923C96.2906 36.5582 96.3086 37.4022 96.3086 38.4001V57.3209L96.5286 57.2489V38.4001C96.5286 37.2562 96.5046 36.1803 96.4626 35.3703Z" fill="#E4E4E4"/>
<path d="M77.4349 39.874H73.9809C73.8952 39.8738 73.8102 39.8905 73.7309 39.9232C73.6516 39.9558 73.5795 40.0038 73.5188 40.0644C73.458 40.1249 73.4098 40.1969 73.3769 40.2761C73.344 40.3552 73.327 40.4402 73.3269 40.5259V43.5177C73.3268 43.6036 73.3436 43.6887 73.3764 43.7682C73.4093 43.8476 73.4574 43.9197 73.5182 43.9805C73.5789 44.0412 73.6511 44.0894 73.7305 44.1222C73.8099 44.155 73.895 44.1718 73.9809 44.1717H77.4349C77.6083 44.1716 77.7746 44.1027 77.8972 43.9801C78.0199 43.8575 78.0888 43.6912 78.0889 43.5177V40.5259C78.0884 40.3528 78.0193 40.187 77.8967 40.0647C77.7741 39.9425 77.608 39.8739 77.4349 39.874V39.874Z" fill="#0AFF84"/>
<path d="M91.6826 41.0319H79.6428C79.5643 41.0319 79.489 41.063 79.4335 41.1186C79.378 41.1741 79.3468 41.2493 79.3468 41.3278C79.3468 41.4063 79.378 41.4816 79.4335 41.5371C79.489 41.5926 79.5643 41.6238 79.6428 41.6238H91.6826C91.7611 41.6238 91.8363 41.5926 91.8918 41.5371C91.9474 41.4816 91.9786 41.4063 91.9786 41.3278C91.9786 41.2493 91.9474 41.1741 91.8918 41.1186C91.8363 41.063 91.7611 41.0319 91.6826 41.0319V41.0319Z" fill="#E4E4E4"/>
<path d="M84.2147 42.4218H79.6428C79.5643 42.4218 79.489 42.4529 79.4335 42.5084C79.378 42.564 79.3468 42.6392 79.3468 42.7177C79.3468 42.7962 79.378 42.8715 79.4335 42.927C79.489 42.9825 79.5643 43.0137 79.6428 43.0137H84.2147C84.2932 43.0137 84.3685 42.9825 84.424 42.927C84.4795 42.8715 84.5107 42.7962 84.5107 42.7177C84.5107 42.6392 84.4795 42.564 84.424 42.5084C84.3685 42.4529 84.2932 42.4218 84.2147 42.4218V42.4218Z" fill="#E4E4E4"/>
<path d="M77.4349 48.7294H73.9809C73.8075 48.7294 73.6412 48.7984 73.5186 48.921C73.3959 49.0436 73.327 49.2099 73.3269 49.3833V52.3751C73.327 52.5486 73.3959 52.7149 73.5186 52.8375C73.6412 52.9601 73.8075 53.029 73.9809 53.0291H77.4349C77.6082 53.0287 77.7743 52.9597 77.8969 52.8371C78.0194 52.7146 78.0884 52.5485 78.0889 52.3751V49.3833C78.0884 49.21 78.0194 49.0439 77.8969 48.9214C77.7743 48.7988 77.6082 48.7298 77.4349 48.7294V48.7294Z" fill="#0AFF84"/>
<path d="M91.6826 49.8873H79.6428C79.564 49.8873 79.4884 49.9186 79.4328 49.9743C79.3771 50.03 79.3458 50.1055 79.3458 50.1843C79.3458 50.263 79.3771 50.3386 79.4328 50.3943C79.4884 50.4499 79.564 50.4812 79.6428 50.4812H91.6826C91.7613 50.4812 91.8369 50.4499 91.8926 50.3943C91.9483 50.3386 91.9796 50.263 91.9796 50.1843C91.9796 50.1055 91.9483 50.03 91.8926 49.9743C91.8369 49.9186 91.7613 49.8873 91.6826 49.8873V49.8873Z" fill="#E4E4E4"/>
<path d="M84.2147 51.2772H79.6428C79.564 51.2772 79.4884 51.3085 79.4328 51.3641C79.3771 51.4198 79.3458 51.4954 79.3458 51.5741C79.3458 51.6529 79.3771 51.7284 79.4328 51.7841C79.4884 51.8398 79.564 51.8711 79.6428 51.8711H84.2147C84.2935 51.8711 84.369 51.8398 84.4247 51.7841C84.4804 51.7284 84.5117 51.6529 84.5117 51.5741C84.5117 51.4954 84.4804 51.4198 84.4247 51.3641C84.369 51.3085 84.2935 51.2772 84.2147 51.2772Z" fill="#E4E4E4"/>
<path d="M77.9948 57.9048C77.9371 57.8077 77.8551 57.7274 77.7569 57.6716C77.6587 57.6158 77.5477 57.5866 77.4348 57.5868H73.9809C73.8767 57.5866 73.7741 57.6113 73.6815 57.659C73.5889 57.7067 73.5092 57.7759 73.4489 57.8608L78.0888 58.4687V58.2387C78.089 58.1209 78.0564 58.0052 77.9948 57.9048V57.9048Z" fill="#0AFF84"/>
<path d="M91.6826 58.7448H80.2088L84.7427 59.3367H90.1106L91.8206 58.7808C91.7787 58.7565 91.731 58.7441 91.6826 58.7448V58.7448Z" fill="#E4E4E4"/>
<path d="M108.552 53.529C108.53 53.5431 108.507 53.5545 108.482 53.563L107.488 53.885L99.4445 56.5028L96.6325 57.4148L96.5285 57.4488L96.3085 57.5208L91.8206 58.9807L90.1107 59.5367L88.6287 60.0186C88.6067 60.0246 88.5827 60.0286 88.5587 60.0326C88.5427 60.0306 88.5267 60.0306 88.5087 60.0286L84.7427 59.5367L80.2088 58.9447L78.0889 58.6687L73.449 58.0607L68.997 57.4808L68.887 57.4668L68.777 57.4508L55.4953 55.7169L55.3833 55.7009C55.3574 55.6985 55.3322 55.691 55.3093 55.6789C55.2558 55.6549 55.2114 55.6143 55.1826 55.5632C55.1538 55.5121 55.1421 55.4531 55.1493 55.3949C55.1545 55.3461 55.1732 55.2997 55.2033 55.2609C55.2153 55.2489 55.2253 55.2369 55.2373 55.2269C55.2473 55.2209 55.2593 55.2089 55.2713 55.2029C55.325 55.1659 55.3906 55.1502 55.4553 55.1589L56.1193 55.2469L68.777 56.9008L68.887 56.9148L68.997 56.9288L75.5549 57.7868L77.9949 58.1047L84.4168 58.9447L88.5187 59.4806L90.1687 58.9447L95.4166 57.2388L96.3086 56.9488L96.4185 56.9128L96.5285 56.8768L99.2745 55.9849L107.442 53.327L108.174 53.0891L108.316 53.0431C108.377 53.0238 108.443 53.0266 108.503 53.0511C108.562 53.0756 108.611 53.1202 108.64 53.1771C108.648 53.1905 108.654 53.2046 108.658 53.2191C108.676 53.2753 108.676 53.3357 108.657 53.3915C108.637 53.4474 108.601 53.4956 108.552 53.529Z" fill="#3F3D56"/>
<path d="M80.9344 72.336C80.7588 72.336 80.5834 72.3225 80.4099 72.2954L60.3293 69.1595C59.6398 69.0496 58.9999 68.7329 58.4944 68.2512C57.989 67.7696 57.6417 67.1458 57.4987 66.4624L55.2576 55.5851L55.3956 55.6019L88.9645 59.6597L84.0563 70.3387C83.7802 70.9344 83.3398 71.4388 82.7867 71.7927C82.2336 72.1465 81.591 72.335 80.9344 72.336V72.336Z" fill="#3F3D56"/>
<path d="M46.0777 84.938L48.523 84.4281L47.7204 74.7537L44.1113 75.5062L46.0777 84.938Z" fill="#9E616A"/>
<path d="M44.9973 83.9041L45.7283 89.8434L45.7298 89.8554L45.7869 89.8434L47.4655 89.493L47.4339 87.7904L48.5679 89.2643L49.6539 89.0388V89.0372L51.8468 88.58L52.0243 88.5439L52.7011 88.4026L53.1704 88.3048C53.3461 88.2678 53.5095 88.1867 53.6452 88.0691C53.7809 87.9516 53.8845 87.8014 53.9461 87.6328C54.0078 87.4641 54.0256 87.2826 53.9977 87.1052C53.9699 86.9278 53.8974 86.7605 53.787 86.6188C53.7024 86.5116 53.5983 86.4213 53.4802 86.3526C53.4652 86.3451 53.4501 86.3361 53.4351 86.3286H53.4336C53.411 86.3165 53.3884 86.306 53.3644 86.2955L53.3238 86.2774L52.6064 85.9751L52.6034 85.9736L50.7097 85.1765L49.1605 84.5238L48.8161 82.8679L48.4025 82.9807L45.8155 83.6815L44.9973 83.9041Z" fill="#2F2E41"/>
<path d="M29.2715 77.0396L31.1707 78.6625L38.3338 72.1101L35.531 69.7151L29.2715 77.0396Z" fill="#9E616A"/>
<path d="M26.5153 80.9241L27.8433 79.8572L27.3723 81.6552L30.9461 84.7092C31.0503 84.7992 31.1715 84.8675 31.3026 84.91C31.4013 84.942 31.5043 84.9594 31.6081 84.9618C31.772 84.9658 31.9346 84.9315 32.083 84.8618C32.2314 84.7921 32.3616 84.6888 32.4632 84.5601C32.5648 84.4314 32.635 84.2808 32.6683 84.1203C32.7017 83.9597 32.6972 83.7936 32.6552 83.6351L31.4851 79.2251L32.5848 77.9394L32.2425 77.6815L30.1049 76.0638L29.4288 75.5526L25.1684 79.7714L26.5153 80.9241Z" fill="#2F2E41"/>
<path d="M38.8774 38.41L50.6502 37.9572L51.0932 26.0128L41.1454 26.3321L38.8774 38.41Z" fill="#9E616A"/>
<path d="M47.68 11.7653C50.1561 11.7653 52.1634 9.75807 52.1634 7.28208C52.1634 4.80608 50.1561 2.79889 47.68 2.79889C45.2038 2.79889 43.1966 4.80608 43.1966 7.28208C43.1966 9.75807 45.2038 11.7653 47.68 11.7653Z" fill="#9E616A"/>
<path d="M43.8107 3.34473L48.9729 0.76001C50.0283 1.23556 50.9372 1.98479 51.6054 2.93C52.2736 3.8752 52.6768 4.98195 52.7731 6.13547L52.9018 7.67664L50.7401 7.12639L50.5033 5.15572L50.1362 6.97268L49.1386 6.71886L49.1481 3.65939L48.1499 6.71668L44.5869 5.89813L43.8107 3.34473Z" fill="#2F2E41"/>
<path d="M50.8768 35.2406C50.8768 35.2406 54.7991 42.0577 51.0123 52.4011L45.6573 66.0553L36.3529 75.4709L31.3525 72.515L40.6495 64.633L36.5034 50.5789C35.5487 47.3939 35.2544 44.0475 35.6385 40.7447C35.9373 38.2733 38.1677 36.3448 39.6935 34.0123C44.7884 37.2984 50.6568 36.7698 50.8768 35.2406Z" fill="#2F2E41"/>
<path d="M45.6638 62.6025L49.1549 78.8186L44.1048 79.7708L41.2289 66.1386L45.6638 62.6025Z" fill="#2F2E41"/>
<path d="M44.3942 13.2643L50.1909 13.3415L52.0774 15.737C52.9785 15.9495 53.7972 16.4221 54.4317 17.0961C55.0663 17.7701 55.4888 18.6157 55.6467 19.5279L55.8246 20.5563C56.1928 22.6839 55.8019 24.8733 54.7202 26.7421V26.7421L51.1814 30.0823L51.3348 30.3611C51.4107 30.4989 51.433 30.6599 51.3974 30.8132C51.3619 30.9664 51.2711 31.1012 51.1423 31.1916C51.2509 31.4655 51.2635 31.7681 51.1781 32.0502L51.1033 32.2974C51.1033 32.2974 53.0874 32.8248 40.8469 31.008C40.5876 30.9693 40.3479 30.8473 40.164 30.6603C39.9802 30.4733 39.8623 30.2315 39.8282 29.9715V29.9715C39.6952 29.8377 39.6075 29.6655 39.5776 29.4792C39.5476 29.293 39.5769 29.102 39.6613 28.9332L39.6863 28.8834L39.5606 28.7354C39.4207 28.5706 39.3399 28.3639 39.331 28.148C39.3221 27.9321 39.3857 27.7194 39.5115 27.5438V27.5438L39.4794 20.5298C39.3322 19.4773 39.5639 18.4068 40.1329 17.5092C40.7019 16.6116 41.5713 15.9454 42.586 15.6293V15.6293L44.3942 13.2643Z" fill="#E6E6E6"/>
<path d="M60.8825 43.2496C60.8796 42.974 60.8162 42.7023 60.6969 42.4538C60.5776 42.2052 60.4053 41.9859 60.192 41.8111C59.9788 41.6364 59.7298 41.5106 59.4627 41.4425C59.1955 41.3743 58.9167 41.3656 58.6458 41.417L55.3089 35.6055L53.7423 38.7156L57.1513 43.7574C57.2676 44.2067 57.5448 44.5978 57.9302 44.8564C58.3156 45.115 58.7825 45.2233 59.2424 45.1607C59.7024 45.0981 60.1233 44.869 60.4256 44.5168C60.7279 44.1646 60.8905 43.7137 60.8825 43.2496V43.2496Z" fill="#9E616A"/>
<path d="M42.5619 19.5407L40.6982 19.8282C40.6982 19.8282 40.1281 21.0467 41.4328 23.4061C42.7374 25.7654 55.1164 40.8616 55.1164 40.8616L56.1627 36.9493L48.9675 23.7135L42.5619 19.5407Z" fill="#E6E6E6"/>
<path d="M147.646 89.892H0.203713C0.149631 89.8918 0.0978182 89.8666 0.0596317 89.822C0.0214451 89.7774 0 89.7169 0 89.6539C0 89.5909 0.0214451 89.5304 0.0596317 89.4857C0.0978182 89.4411 0.149631 89.416 0.203713 89.4158H147.646C147.7 89.4158 147.752 89.4408 147.79 89.4855C147.828 89.5302 147.85 89.5907 147.85 89.6539C147.85 89.717 147.828 89.7776 147.79 89.8223C147.752 89.8669 147.7 89.892 147.646 89.892V89.892Z" fill="#CCCCCC"/>
</svg>
