<svg width="259" height="193" viewBox="0 0 259 193" fill="none" xmlns="http://www.w3.org/2000/svg">
<g clip-path="url(#clip0_182_1035)">
<path d="M189.121 183.379H183.967L181.515 163.561H189.121V183.379Z" fill="#9E616A"/>
<path d="M191.841 192.281H188.146L187.486 188.803L185.796 192.281H175.995C175.525 192.281 175.067 192.132 174.689 191.854C174.31 191.576 174.031 191.186 173.891 190.738C173.751 190.291 173.758 189.811 173.911 189.368C174.065 188.925 174.356 188.543 174.742 188.277L182.57 182.887V179.37L190.803 179.86L191.841 192.281Z" fill="#2F2E41"/>
<path d="M219.737 176.895L215.601 179.961L201.772 165.517L207.876 160.992L219.737 176.895Z" fill="#9E616A"/>
<path d="M227.248 182.42L224.283 184.619L221.671 182.22L222.397 186.017L214.532 191.848C214.155 192.128 213.698 192.28 213.228 192.282C212.758 192.285 212.3 192.137 211.92 191.862C211.54 191.586 211.259 191.196 211.117 190.75C210.975 190.303 210.98 189.823 211.131 189.38L214.186 180.398L212.081 177.576L218.981 173.071L227.248 182.42Z" fill="#2F2E41"/>
<path d="M195.12 81.1289C195.12 81.1289 204.898 89.5513 200.387 113.561L194.879 137.087L212.841 166.797L207.114 173.744L183.763 141.586L175.301 121.797L172.927 86.5754L195.12 81.1289Z" fill="#2F2E41"/>
<path d="M179.965 127.436L179.377 136.517L181.177 175.214L189.646 173.743L191.264 146.192L179.965 127.436Z" fill="#2F2E41"/>
<path d="M71.2858 188.039L75.8944 188.038L78.0866 170.316L71.2852 170.316L71.2858 188.039Z" fill="#FFB6B6"/>
<path d="M70.1104 186.539L71.4075 186.539L76.4719 184.485L79.1862 186.538H79.1866C80.7205 186.538 82.1916 187.146 83.2762 188.227C84.3609 189.309 84.9703 190.775 84.9704 192.305V192.492L70.1106 192.493L70.1104 186.539Z" fill="#2F2E41"/>
<path d="M89.1445 185.143L93.6397 186.155L99.6939 169.349L93.0594 167.855L89.1445 185.143Z" fill="#FFB6B6"/>
<path d="M88.3289 183.422L89.5942 183.707L94.9878 182.816L97.1819 185.415L97.1823 185.415C98.6785 185.752 99.9792 186.667 100.798 187.961C101.617 189.254 101.888 190.818 101.55 192.31L101.509 192.493L87.0137 189.23L88.3289 183.422Z" fill="#2F2E41"/>
<path d="M65.4491 79.6909C63.2884 86.1882 63.5168 93.2407 65.9684 100.81L67.0164 143.427C67.0164 143.427 65.455 171.375 70.4936 181.209H77.8009L81.4189 140.875L81.8732 113.802L97.5394 136.643L87.5611 180.55L96.5547 181.352L112.747 133.702L92.769 87.4733L65.4491 79.6909Z" fill="#2F2E41"/>
<path d="M149.719 61.1842C155.308 56.1626 163.622 53.6376 170.595 56.4534C163.442 60.4131 157.924 66.7679 155.018 74.3934C153.907 77.3383 152.98 80.7289 150.25 82.3055C148.55 83.2866 146.437 83.3345 144.532 82.861C142.627 82.3873 140.88 81.4379 139.158 80.498L138.668 80.487C140.868 73.3134 144.13 66.2059 149.719 61.1842Z" fill="#E6E6E6"/>
<path d="M170.556 56.6059C164.38 57.4017 158.612 60.1175 154.072 64.3675C153.079 65.2652 152.233 66.3134 151.567 67.4735C150.954 68.6246 150.662 69.9181 150.721 71.2198C150.751 72.4345 150.923 73.6736 150.657 74.8745C150.511 75.4872 150.237 76.0623 149.853 76.5621C149.469 77.0619 148.983 77.4751 148.428 77.7746C147.063 78.5567 145.498 78.8033 143.959 78.9914C142.25 79.2002 140.471 79.3901 138.992 80.3457C138.813 80.4615 138.643 80.1775 138.822 80.0619C141.396 78.3992 144.652 79.0042 147.42 77.8946C148.711 77.3768 149.853 76.4679 150.258 75.0937C150.612 73.8921 150.435 72.6142 150.394 71.3845C150.318 70.1155 150.555 68.8474 151.084 67.6907C151.689 66.5005 152.493 65.4216 153.461 64.5002C155.607 62.3911 158.072 60.6316 160.766 59.286C163.832 57.7333 167.142 56.7151 170.553 56.2753C170.764 56.2481 170.766 56.579 170.556 56.6059H170.556Z" fill="white"/>
<path d="M155.453 62.9134C154.841 62.0571 154.554 61.0119 154.644 59.9645C154.734 58.917 155.194 57.9354 155.943 57.1951C156.095 57.0458 156.335 57.2743 156.182 57.4238C155.484 58.1119 155.055 59.0263 154.974 60.0018C154.892 60.9774 155.163 61.9499 155.737 62.7439C155.862 62.9166 155.577 63.0851 155.453 62.9134V62.9134Z" fill="white"/>
<path d="M150.624 70.6059C152.746 70.9808 154.932 70.5444 156.746 69.3836C156.926 69.2685 157.096 69.5525 156.916 69.6675C155.026 70.8719 152.75 71.3215 150.543 70.9265C150.332 70.8887 150.414 70.5683 150.624 70.6059V70.6059Z" fill="white"/>
<path d="M163.859 58.1708C164.026 58.5513 164.286 58.8843 164.615 59.1401C164.943 59.3958 165.33 59.5661 165.741 59.6358C165.952 59.671 165.869 59.9913 165.66 59.9564C165.206 59.8773 164.779 59.6886 164.415 59.4069C164.052 59.1252 163.763 58.759 163.574 58.3403C163.553 58.3023 163.547 58.2578 163.558 58.2157C163.569 58.1736 163.595 58.1371 163.632 58.1136C163.669 58.0914 163.714 58.0849 163.757 58.0956C163.8 58.1063 163.836 58.1334 163.859 58.1708V58.1708Z" fill="white"/>
<path d="M178.274 80.6701C178.142 80.6519 178.01 80.6338 177.875 80.6176C176.096 80.3821 174.301 80.2912 172.507 80.3457C172.368 80.3477 172.228 80.3518 172.089 80.3578C167.769 80.5349 163.518 81.5103 159.555 83.2343C157.978 83.9218 156.457 84.7279 155.003 85.6456C152.995 86.913 150.919 88.4465 148.675 88.9634C148.441 89.02 148.204 89.0621 147.966 89.0894L138.692 81.0838C138.68 81.0551 138.666 81.0284 138.654 80.9996L138.27 80.6968C138.341 80.6442 138.417 80.5913 138.488 80.5387C138.53 80.5081 138.573 80.4792 138.615 80.4486C138.643 80.4287 138.671 80.4089 138.696 80.3893C138.705 80.3827 138.715 80.3761 138.722 80.3716C138.747 80.352 138.771 80.3365 138.794 80.319C139.215 80.0218 139.639 79.727 140.065 79.4346C140.067 79.4325 140.067 79.4325 140.071 79.4322C143.301 77.1734 146.788 75.3046 150.459 73.8649C150.569 73.8235 150.681 73.7798 150.795 73.742C152.449 73.129 154.15 72.6519 155.881 72.3152C156.829 72.1339 157.787 72.0006 158.749 71.9158C161.235 71.7015 163.74 71.8784 166.171 72.4401C171.018 73.5606 175.451 76.214 178.077 80.352C178.144 80.4579 178.209 80.5621 178.274 80.6701Z" fill="#E6E6E6"/>
<path d="M178.151 80.7694C172.739 77.6974 166.494 76.4036 160.303 77.0718C158.967 77.192 157.659 77.5214 156.427 78.0478C155.243 78.5992 154.228 79.4567 153.489 80.5312C152.78 81.5192 152.169 82.6118 151.231 83.4107C150.745 83.8125 150.179 84.1073 149.57 84.2758C148.962 84.4443 148.324 84.4826 147.7 84.3882C146.138 84.1935 144.739 83.4508 143.397 82.6771C141.906 81.8181 140.372 80.9023 138.614 80.7773C138.401 80.7622 138.437 80.4335 138.649 80.4486C141.708 80.666 143.943 83.1039 146.823 83.879C148.166 84.2407 149.627 84.2009 150.78 83.3464C151.788 82.5993 152.419 81.4731 153.129 80.4665C153.835 79.4078 154.79 78.5375 155.91 77.9316C157.112 77.3444 158.405 76.9653 159.735 76.8106C162.722 76.4148 165.752 76.4897 168.716 77.0326C172.102 77.6335 175.36 78.8074 178.349 80.5036C178.534 80.6087 178.335 80.8738 178.151 80.7694L178.151 80.7694Z" fill="white"/>
<path d="M162.283 76.7395C162.312 75.6886 162.714 74.6821 163.418 73.8996C164.123 73.1171 165.083 72.6097 166.128 72.468C166.339 72.4401 166.393 72.7664 166.181 72.7944C165.208 72.9246 164.313 73.3974 163.659 74.1273C163.005 74.8573 162.634 75.7964 162.613 76.7751C162.608 76.9878 162.279 76.951 162.283 76.7395Z" fill="white"/>
<path d="M153.783 79.983C155.251 81.5564 157.26 82.5202 159.409 82.6823C159.622 82.6982 159.586 83.0269 159.374 83.011C157.137 82.8382 155.049 81.8309 153.524 80.1903C153.379 80.0338 153.638 79.8274 153.783 79.983Z" fill="white"/>
<path d="M171.859 77.999C171.763 78.4034 171.769 78.8251 171.877 79.2265C171.985 79.6278 172.191 79.9962 172.477 80.2985C172.624 80.453 172.365 80.6593 172.218 80.5057C171.904 80.1703 171.677 79.7632 171.557 79.32C171.437 78.8769 171.427 78.4111 171.529 77.9635C171.535 77.9205 171.557 77.8814 171.591 77.8541C171.625 77.8269 171.668 77.8136 171.712 77.8169C171.755 77.8218 171.795 77.8437 171.823 77.8778C171.85 77.9119 171.863 77.9555 171.859 77.999V77.999Z" fill="white"/>
<path d="M15.3932 187.717C14.9579 189.345 13.814 190.701 12.433 191.689C12.2079 191.851 11.9767 192 11.7425 192.141C11.6705 192.183 11.5984 192.228 11.5234 192.267C11.4423 192.314 11.3613 192.359 11.2802 192.401H4.78646C4.66937 192.165 4.55529 191.925 4.44121 191.689C1.65817 185.858 -0.296251 179.566 0.0369918 173.158C0.169201 170.672 0.692987 168.222 1.58912 165.899C3.37243 161.269 6.6268 157.261 11.1031 155.243C11.2141 155.192 11.3312 155.141 11.4453 155.094C11.4093 155.222 11.3733 155.348 11.3372 155.477C10.857 157.202 10.5177 158.962 10.3225 160.742C10.3045 160.879 10.2895 161.017 10.2775 161.158C9.85096 165.449 10.2297 169.783 11.3943 173.936C11.3973 173.945 11.4003 173.957 11.4033 173.966C11.6585 174.885 11.9547 175.79 12.2919 176.681C12.5561 177.384 12.8413 178.079 13.1536 178.761C14.4565 181.626 16.2038 184.679 15.3932 187.717Z" fill="#E6E6E6"/>
<path d="M11.5261 155.228C11.4631 155.312 11.4 155.393 11.337 155.477C10.0184 157.219 8.89866 159.102 7.99857 161.092C7.95053 161.191 7.9055 161.29 7.86647 161.391C6.63316 164.17 5.84111 167.122 5.51875 170.144C5.51527 170.164 5.51326 170.185 5.51275 170.206C5.4377 170.913 5.39266 171.625 5.37465 172.338C5.30789 173.673 5.45278 175.01 5.80396 176.301C6.12418 177.354 6.6853 178.32 7.44316 179.12C7.51821 179.201 7.59327 179.282 7.67433 179.36C7.73437 179.423 7.80042 179.486 7.86346 179.545C8.46991 180.123 9.13339 180.659 9.70381 181.278C9.96526 181.556 10.2014 181.857 10.4093 182.176C10.7412 182.712 10.9556 183.312 11.0384 183.936C11.1212 184.56 11.0705 185.195 10.8897 185.798C10.4814 187.313 9.5477 188.591 8.593 189.809C8.11565 190.42 7.62329 191.036 7.19698 191.689C7.04088 191.922 6.89676 192.159 6.76468 192.401H6.38641C6.5125 192.159 6.6506 191.922 6.80071 191.689C7.89651 189.968 9.45465 188.489 10.2622 186.594C10.8086 185.316 10.9738 183.868 10.2833 182.613C10.0809 182.249 9.836 181.909 9.55372 181.602C9.00432 180.982 8.34684 180.452 7.7494 179.893C7.59929 179.752 7.45218 179.608 7.31108 179.459C6.563 178.701 5.98573 177.793 5.61785 176.795C5.20123 175.527 5.00427 174.198 5.03542 172.864C5.03542 172.014 5.08046 171.158 5.16452 170.308C5.17352 170.201 5.18553 170.09 5.19754 169.979C5.8115 164.63 7.85051 159.542 11.1028 155.243C11.1629 155.159 11.2259 155.079 11.289 154.998C11.4181 154.83 11.6552 155.064 11.5261 155.228Z" fill="white"/>
<path d="M5.31936 170.337C4.27949 170.162 3.33556 169.625 2.65615 168.822C1.97674 168.018 1.60609 166.999 1.61039 165.948C1.61096 165.905 1.6282 165.864 1.65848 165.833C1.68876 165.803 1.7297 165.785 1.77269 165.784C1.81568 165.784 1.85736 165.799 1.88894 165.828C1.92052 165.857 1.93954 165.898 1.942 165.94C1.93618 166.919 2.28154 167.868 2.91574 168.616C3.54994 169.363 4.4312 169.86 5.40048 170.016C5.61107 170.05 5.52875 170.371 5.31936 170.337V170.337Z" fill="white"/>
<path d="M7.35961 179.18C9.12628 177.949 10.3626 176.099 10.8221 174C10.8674 173.792 11.1889 173.873 11.1436 174.081C10.6614 176.265 9.37088 178.187 7.52961 179.464C7.35402 179.586 7.18499 179.301 7.35962 179.18L7.35961 179.18Z" fill="white"/>
<path d="M7.89962 161.057C8.28788 161.208 8.70768 161.26 9.1213 161.21C9.53493 161.159 9.92943 161.006 10.2694 160.766C10.4433 160.642 10.6122 160.927 10.4394 161.05C10.0625 161.314 9.62664 161.482 9.16978 161.539C8.71291 161.596 8.24897 161.54 7.81849 161.378C7.77662 161.366 7.74089 161.338 7.71857 161.301C7.69624 161.264 7.68899 161.219 7.69829 161.177C7.70924 161.134 7.73654 161.098 7.77424 161.076C7.81193 161.053 7.85699 161.046 7.89962 161.057V161.057Z" fill="white"/>
<path d="M34.0483 166.803C33.9433 166.884 33.8352 166.965 33.7301 167.049C32.3048 168.136 30.9704 169.337 29.7402 170.641C29.6441 170.739 29.548 170.841 29.455 170.943L29.452 170.946C26.5351 174.103 24.2286 177.77 22.649 181.763L22.64 181.79C22.637 181.799 22.634 181.805 22.631 181.814C22.0049 183.413 21.5001 185.055 21.1209 186.729C20.7546 188.363 20.4544 190.115 19.881 191.689C19.7939 191.931 19.6979 192.171 19.5958 192.401H6.24805C6.29308 192.165 6.34112 191.925 6.38915 191.689C7.06814 188.221 8.12935 184.838 9.55346 181.602C9.60149 181.494 9.64953 181.386 9.70357 181.278C10.4388 179.68 11.3032 178.143 12.2885 176.684C12.2884 176.683 12.2885 176.683 12.2887 176.683C12.2888 176.682 12.289 176.682 12.2893 176.682C12.2896 176.681 12.2899 176.681 12.2903 176.681C12.2907 176.681 12.2911 176.681 12.2915 176.681C12.8325 175.885 13.4136 175.116 14.0327 174.379C15.6384 172.474 17.535 170.834 19.6528 169.518C19.6648 169.509 19.6798 169.503 19.6919 169.494C23.9069 166.887 28.9026 165.645 33.6791 166.719H33.6821C33.8052 166.746 33.9253 166.773 34.0483 166.803Z" fill="#E6E6E6"/>
<path d="M34.0336 166.962C33.9315 166.989 33.8295 167.019 33.7304 167.049C31.6263 167.648 29.5955 168.478 27.675 169.524C27.5789 169.575 27.4828 169.629 27.3868 169.683C24.7327 171.159 22.3235 173.036 20.2445 175.247C20.2429 175.249 20.2419 175.251 20.2415 175.253C20.2175 175.277 20.1905 175.304 20.1695 175.328C19.6891 175.843 19.2268 176.378 18.7885 176.929C17.9311 177.956 17.2402 179.111 16.741 180.35C16.3595 181.384 16.2248 182.492 16.3477 183.586C16.3567 183.697 16.3717 183.805 16.3867 183.915C16.3987 184.002 16.4107 184.089 16.4258 184.179C16.6239 185.379 16.9661 186.582 16.8701 187.807C16.8116 188.434 16.6206 189.042 16.3096 189.59C15.9987 190.139 15.5747 190.615 15.0658 190.988C14.7198 191.255 14.35 191.49 13.961 191.689C13.4048 191.975 12.8253 192.213 12.2287 192.401H11.0488C11.2079 192.356 11.3641 192.311 11.5232 192.267C12.0878 192.108 12.6422 191.915 13.1834 191.689C13.4925 191.56 13.7933 191.412 14.084 191.246C15.2909 190.554 16.2967 189.495 16.5068 188.079C16.6899 186.84 16.3357 185.601 16.1255 184.388C16.0895 184.179 16.0565 183.972 16.0385 183.766C15.8951 182.716 15.9822 181.648 16.2937 180.635C16.7256 179.371 17.3714 178.191 18.2031 177.145C18.7175 176.464 19.2666 175.809 19.8483 175.184C19.9203 175.103 19.9954 175.023 20.0734 174.942C22.1961 172.715 24.6471 170.825 27.3417 169.335H27.3447C29.3483 168.223 31.4739 167.345 33.6794 166.719H33.6823C33.7814 166.689 33.8835 166.659 33.9826 166.632C34.1897 166.579 34.2378 166.905 34.0336 166.962Z" fill="white"/>
<path d="M19.9553 175.298C19.2302 174.535 18.8008 173.539 18.7438 172.49C18.6868 171.44 19.006 170.404 19.6442 169.567C19.774 169.398 20.0433 169.591 19.9134 169.76C19.3176 170.539 19.0204 171.503 19.0755 172.481C19.1305 173.458 19.5342 174.384 20.2136 175.091C20.3611 175.244 20.1019 175.451 19.9553 175.298H19.9553Z" fill="white"/>
<path d="M16.2442 183.585C18.3983 183.662 20.5025 182.927 22.1373 181.526C22.2991 181.388 22.5068 181.645 22.3452 181.784C20.6412 183.238 18.4499 183.999 16.2085 183.913C15.9949 183.905 16.0317 183.576 16.2442 183.585V183.585Z" fill="white"/>
<path d="M27.619 169.438C27.8379 169.791 28.1414 170.085 28.5023 170.293C28.8632 170.501 29.2702 170.616 29.6868 170.628C29.9004 170.633 29.8633 170.962 29.6511 170.957C29.1909 170.941 28.7416 170.813 28.3423 170.585C27.943 170.356 27.606 170.033 27.3607 169.645C27.3345 169.61 27.3225 169.567 27.3272 169.524C27.3319 169.48 27.3529 169.441 27.3859 169.412C27.4202 169.385 27.464 169.372 27.5076 169.377C27.5513 169.382 27.5913 169.404 27.619 169.438V169.438Z" fill="white"/>
<path d="M137.014 51.8219C136.706 52.2259 136.313 52.5578 135.862 52.7939C135.412 53.0301 134.915 53.1649 134.406 53.1888C133.898 53.2127 133.39 53.1251 132.919 52.9323C132.448 52.7394 132.025 52.446 131.68 52.0726L120.332 56.9935L121.437 50.6773L132.045 46.9726C132.712 46.4366 133.554 46.1633 134.41 46.2045C135.266 46.2458 136.077 46.5987 136.69 47.1964C137.302 47.7942 137.674 48.5952 137.734 49.4477C137.793 50.3002 137.537 51.1449 137.014 51.8219V51.8219Z" fill="#FFB8B8"/>
<path d="M129.442 53.7941L103.083 65.5001L103.027 65.48L72.9847 54.8064C70.747 53.6404 69.041 51.6656 68.216 49.2864C67.391 46.9072 67.5094 44.3036 68.547 42.0086V42.0086C69.1221 40.7406 69.9601 39.6084 71.0058 38.6866C72.0514 37.7647 73.281 37.0742 74.6137 36.6603C75.9463 36.2464 77.3517 36.1186 78.7375 36.2853C80.1232 36.452 81.4578 36.9095 82.6535 37.6275L105.01 51.0549L126.69 48.2536L129.442 53.7941Z" fill="#E6E6E6"/>
<path d="M259 192.644C259 192.691 258.991 192.737 258.973 192.78C258.955 192.824 258.929 192.863 258.895 192.896C258.862 192.929 258.823 192.955 258.779 192.973C258.736 192.991 258.69 193 258.643 193H0.367023C0.272271 193 0.181404 192.962 0.114404 192.896C0.047405 192.829 0.00976562 192.738 0.00976562 192.644C0.00976562 192.549 0.047405 192.459 0.114404 192.392C0.181404 192.325 0.272271 192.288 0.367023 192.288H258.643C258.69 192.287 258.736 192.297 258.779 192.314C258.823 192.332 258.862 192.359 258.895 192.392C258.929 192.425 258.955 192.464 258.973 192.507C258.991 192.551 259 192.597 259 192.644Z" fill="#CCCCCC"/>
<path d="M94.0714 88.8383L67.5003 84.6009C66.8034 84.3783 66.1631 84.0081 65.6233 83.5155C65.0834 83.023 64.6569 82.4198 64.373 81.7474C64.089 81.075 63.9544 80.3493 63.9783 79.6201C64.0022 78.8909 64.1841 78.1755 64.5114 77.5231L65.7164 75.12L65.2484 49.873C65.1919 46.5889 66.004 43.348 67.6028 40.4762C69.2016 37.6044 71.5307 35.2031 74.3559 33.5138L76.9471 31.9691L78.2566 28.6536L90.3315 28.9472L90.3666 33.2956L94.6909 40.1705L94.6908 40.199L94.4195 77.6187L93.2277 81.4804L95.0297 85.972L94.0714 88.8383Z" fill="#E6E6E6"/>
<path d="M85.4 24.5309C91.4592 24.5309 96.3712 19.6335 96.3712 13.5924C96.3712 7.55116 91.4592 2.65381 85.4 2.65381C79.3407 2.65381 74.4287 7.55116 74.4287 13.5924C74.4287 19.6335 79.3407 24.5309 85.4 24.5309Z" fill="#FFB8B8"/>
<path d="M73.9757 15.9768C73.6485 14.6024 73.7987 12.6683 73.9836 11.2843C74.4684 7.65614 76.4894 4.20689 79.5597 2.16378C80.1419 1.72293 80.8337 1.44883 81.5605 1.37104C82.2869 1.3408 83.0742 1.72848 83.2972 2.41837C83.4802 1.96304 83.7548 1.54993 84.1041 1.20454C84.4535 0.859153 84.8701 0.58881 85.3283 0.410203C86.2488 0.0586039 87.2387 -0.0743625 88.2197 0.0218436C90.121 0.178103 91.9445 0.844674 93.4966 1.95082C95.0486 3.05696 96.2713 4.5614 97.035 6.3045C97.3281 6.99857 98.1466 4.43486 98.5178 5.09066C98.859 5.77232 99.4543 6.29377 100.176 6.5434C100.904 6.7458 101.199 9.7343 101.486 9.03743C101.708 9.55243 101.795 10.1151 101.741 10.6731C101.686 11.231 101.491 11.7661 101.173 12.2284C100.855 12.6908 100.425 13.0654 99.9223 13.3174C99.42 13.5694 98.8619 13.6905 98.3 13.6696C97.5596 13.6419 96.8515 13.3704 96.1198 13.2535C93.5034 12.8355 90.7279 14.7271 90.1686 17.3095C89.9683 16.5627 89.6484 15.8531 89.2212 15.208C89.0043 14.8871 88.7137 14.6225 88.3736 14.4362C88.0335 14.2499 87.6537 14.1472 87.2658 14.1368C86.5214 14.1645 85.867 14.6498 85.384 15.2152C84.901 15.7807 84.5383 16.4404 84.0517 17.0027C82.624 18.6529 80.693 22.5012 78.6584 22.2206C77.0528 21.9991 74.4225 17.8535 73.9757 15.9768Z" fill="#2F2E41"/>
<path d="M151.72 64.2171C151.797 63.7184 151.694 63.2087 151.43 62.7784C151.166 62.3481 150.757 62.025 150.277 61.8663L120.732 52.0553C120.448 51.9609 120.148 51.9265 119.851 51.9545L112.446 52.6527L108.196 53.0546L100.355 53.7934C99.8815 53.8386 99.4365 54.0391 99.0897 54.3636C98.7428 54.6881 98.5138 55.1181 98.4385 55.5863L94.4572 80.3816C94.3819 80.8652 94.4742 81.36 94.719 81.7843C94.9637 82.2085 95.3463 82.5369 95.8035 82.7151L125.657 94.2045C125.798 94.2587 125.943 94.2977 126.092 94.3207C126.308 94.3557 126.528 94.3573 126.745 94.3257L146.036 91.4751C146.491 91.4094 146.912 91.1992 147.238 90.8758C147.564 90.5523 147.776 90.1327 147.844 89.6794L151.72 64.2171Z" fill="white"/>
<path d="M96.48 80.9682L126.334 92.4569C126.377 92.4741 126.425 92.4796 126.471 92.473L145.759 89.6228C145.816 89.615 145.869 89.5888 145.91 89.5482C145.951 89.5076 145.978 89.4548 145.986 89.3978L149.865 63.9352C149.873 63.8731 149.86 63.8098 149.827 63.7562C149.795 63.7026 149.744 63.662 149.685 63.6415L149.486 63.5744L120.137 53.8327C120.124 53.8279 120.11 53.8246 120.096 53.8227C120.073 53.8186 120.05 53.8174 120.027 53.8192L101.965 55.5233L100.531 55.6574C100.472 55.6636 100.417 55.6889 100.374 55.7293C100.331 55.7697 100.302 55.8231 100.293 55.8812L96.312 80.6755C96.3023 80.7361 96.3136 80.7982 96.3442 80.8514C96.3747 80.9046 96.4227 80.9459 96.48 80.9682V80.9682Z" fill="#0AFF84"/>
<path d="M101.965 55.5233L120.027 53.8192C120.05 53.8174 120.074 53.8186 120.096 53.8227C120.11 53.8246 120.124 53.8279 120.138 53.8327L149.486 63.5744L141.745 64.3915L138.847 64.6958L130.603 65.5642C130.579 65.5654 130.555 65.5651 130.531 65.5633C130.516 65.5589 130.502 65.5545 130.484 65.5498L101.965 55.5233Z" fill="#2F2E41"/>
<path d="M95.8027 82.7168L125.656 94.2056C125.797 94.2595 125.943 94.2977 126.092 94.3192C126.308 94.3549 126.529 94.3576 126.746 94.3274L146.034 91.4771C146.489 91.4111 146.911 91.2006 147.237 90.877C147.563 90.5533 147.775 90.1336 147.844 89.68L151.719 64.2172C151.777 63.8418 151.733 63.458 151.594 63.1047C151.574 63.0578 151.555 63.0108 151.532 62.9665C151.378 62.644 151.144 62.366 150.852 62.1591C150.676 62.0332 150.482 61.9347 150.277 61.8667L150.242 61.8544L120.733 52.0552C120.612 52.0169 120.489 51.9871 120.364 51.966C120.194 51.9419 120.021 51.9386 119.85 51.9561L112.445 52.6519L108.196 53.056L100.354 53.7943C100.033 53.8241 99.7231 53.9262 99.4476 54.0928C99.4263 54.1031 99.4059 54.1152 99.3868 54.1291C99.3731 54.138 99.3601 54.1478 99.3478 54.1585C99.1072 54.3222 98.9025 54.5331 98.7463 54.7782C98.5901 55.0234 98.4856 55.2977 98.4391 55.5844L94.4552 80.3814C94.3799 80.8654 94.4724 81.3606 94.7174 81.7852C94.9623 82.2098 95.3451 82.5384 95.8027 82.7168V82.7168ZM98.9676 55.6708C99.016 55.3736 99.1482 55.0963 99.3489 54.8712C99.4096 54.7988 99.4776 54.7327 99.5517 54.674C99.7542 54.5108 99.9937 54.3994 100.249 54.3496C100.3 54.3392 100.351 54.332 100.402 54.3281L113.607 53.0843L119.901 52.4872C119.944 52.4822 119.983 52.4829 120.022 52.4807C120.118 52.4787 120.213 52.4858 120.307 52.5018C120.393 52.513 120.478 52.5331 120.561 52.562L150.105 62.3735C150.128 62.3817 150.148 62.3897 150.172 62.3979C150.44 62.4976 150.676 62.6688 150.854 62.8929C150.995 63.0645 151.097 63.2637 151.155 63.4775C151.213 63.6914 151.225 63.915 151.191 64.1338L147.312 89.5993C147.261 89.9389 147.102 90.2532 146.858 90.4958C146.614 90.7384 146.299 90.8965 145.958 90.9467L126.667 93.7967C126.391 93.8361 126.109 93.8041 125.849 93.7038L95.9952 82.218C95.653 82.0835 95.3668 81.8371 95.1836 81.5192C95.0003 81.2012 94.9309 80.8306 94.9867 80.4681L98.9676 55.6708Z" fill="#3F3D56"/>
<path d="M99.2839 54.2936C99.2997 54.2484 99.3275 54.2085 99.3644 54.1779C99.3766 54.1682 99.3896 54.1594 99.4031 54.1516C99.4156 54.1467 99.4284 54.1389 99.441 54.1341C99.5009 54.1101 99.5676 54.109 99.6283 54.1309L100.25 54.3495L130.607 65.0262L137.711 64.2778L141.687 63.8597L150.102 62.9715L150.854 62.8928L151.001 62.8767C151.064 62.8709 151.127 62.8874 151.179 62.9231C151.231 62.9588 151.269 63.0116 151.287 63.0723C151.291 63.0863 151.293 63.1006 151.295 63.1151C151.301 63.1728 151.288 63.2308 151.258 63.2806C151.228 63.3304 151.183 63.3692 151.129 63.3911C151.106 63.4009 151.081 63.4076 151.055 63.4111L150.032 63.518L141.745 64.3914L138.847 64.6957L130.603 65.5641C130.579 65.5653 130.555 65.565 130.531 65.5632C130.516 65.5588 130.502 65.5544 130.484 65.5497L99.5521 54.6739L99.4471 54.6369C99.423 54.629 99.4006 54.6166 99.3812 54.6005C99.3344 54.5663 99.2997 54.5181 99.2822 54.4629C99.2647 54.4077 99.2653 54.3484 99.2839 54.2936Z" fill="#3F3D56"/>
<path d="M126.173 94.3971C126.103 94.3859 126.041 94.3477 125.999 94.2908C125.957 94.2339 125.94 94.1628 125.95 94.0931L130.309 65.2579C130.319 65.1878 130.357 65.1247 130.415 65.0826C130.472 65.0404 130.543 65.0227 130.614 65.0333L130.616 65.0336C130.686 65.0448 130.749 65.083 130.79 65.1399C130.832 65.1969 130.85 65.2679 130.839 65.3377L126.481 94.1728C126.47 94.243 126.432 94.306 126.375 94.3482C126.318 94.3903 126.246 94.408 126.176 94.3975L126.173 94.3971Z" fill="#3F3D56"/>
<path d="M137.221 92.568L134.322 92.873L137.713 64.2771C137.713 64.2771 141.584 63.5783 141.687 63.8585C141.751 64.0258 137.248 92.3846 137.221 92.568Z" fill="#3F3D56"/>
<path d="M99.4472 54.6365L99.3691 67.6771L122.524 76.4737L130.839 65.3376L99.4472 54.6365Z" fill="#3F3D56"/>
<path d="M150.855 62.8934C150.662 62.6508 150.401 62.4701 150.106 62.3736L120.562 52.5624C120.48 52.5346 120.394 52.5139 120.308 52.5006C120.214 52.4844 120.118 52.4773 120.022 52.4793L120.07 52.1808L120.366 51.9673L127.382 46.9031L150.811 54.062L150.852 62.1592L150.855 62.8934Z" fill="#3F3D56"/>
<path d="M100.628 75.5711C100.661 75.5743 100.694 75.5812 100.725 75.5916L109.79 78.5599C109.904 78.5971 109.998 78.6776 110.052 78.7839C110.105 78.8902 110.115 79.0134 110.078 79.1266C110.04 79.2397 109.96 79.3335 109.853 79.3872C109.746 79.441 109.623 79.4503 109.509 79.4132L100.445 76.4448C100.339 76.4104 100.251 76.3384 100.195 76.2428C100.14 76.1472 100.122 76.0345 100.144 75.9264C100.167 75.8183 100.229 75.7223 100.318 75.6567C100.407 75.5912 100.517 75.5607 100.628 75.5711H100.628Z" fill="white"/>
<path d="M137.201 130.277C139.191 130.277 140.804 128.668 140.804 126.685C140.804 124.701 139.191 123.093 137.201 123.093C135.212 123.093 133.599 124.701 133.599 126.685C133.599 128.668 135.212 130.277 137.201 130.277Z" fill="#F2F2F2"/>
<path d="M45.3341 143.447C47.3238 143.447 48.9367 141.839 48.9367 139.855C48.9367 137.871 47.3238 136.263 45.3341 136.263C43.3444 136.263 41.7314 137.871 41.7314 139.855C41.7314 141.839 43.3444 143.447 45.3341 143.447Z" fill="#F2F2F2"/>
<path d="M120.389 24.6152C122.378 24.6152 123.991 23.007 123.991 21.0233C123.991 19.0395 122.378 17.4314 120.389 17.4314C118.399 17.4314 116.786 19.0395 116.786 21.0233C116.786 23.007 118.399 24.6152 120.389 24.6152Z" fill="#F2F2F2"/>
<path d="M126.3 80.8539C125.833 81.0561 125.327 81.1539 124.819 81.1402C124.31 81.1265 123.81 81.0017 123.355 80.7746C122.899 80.5475 122.499 80.2237 122.183 79.8259C121.867 79.4281 121.642 78.966 121.524 78.4721L109.212 77.2319L113.274 72.2612L124.343 74.201C125.189 74.0589 126.057 74.2308 126.783 74.6842C127.51 75.1375 128.044 75.8409 128.286 76.6609C128.527 77.481 128.458 78.3608 128.092 79.1335C127.726 79.9063 127.088 80.5184 126.3 80.8539V80.8539Z" fill="#FFB8B8"/>
<path d="M118.726 78.8819L89.9929 76.2424L89.9535 76.1972L68.983 52.2403C67.6029 50.1323 67.0833 47.578 67.5305 45.1004C67.9778 42.6228 69.358 40.4094 71.3887 38.9134V38.9134C72.5123 38.0877 73.7985 37.5087 75.1627 37.2144C76.5269 36.9201 77.9382 36.9171 79.3036 37.2058C80.6691 37.4945 81.9577 38.0682 83.0847 38.8892C84.2117 39.7103 85.1515 40.7599 85.8423 41.9692L98.7585 64.5815L119.043 72.7072L118.726 78.8819Z" fill="#E6E6E6"/>
<path d="M190.846 32.811C190.133 27.5926 189.238 21.9899 185.546 18.2229C184.375 17.0276 182.973 16.0812 181.425 15.4407C179.877 14.8002 178.214 14.479 176.538 14.4963C174.862 14.5136 173.207 14.8691 171.673 15.5413C170.138 16.2136 168.756 17.1888 167.61 18.408C164.923 21.2661 163.736 25.2795 163.627 29.1956C163.519 33.1116 164.393 36.9842 165.364 40.7804C170.499 40.8827 175.597 39.8823 180.311 37.8472C181.489 37.3372 182.649 36.7605 183.894 36.4445C185.139 36.1285 186.027 36.9237 187.186 37.4782L187.821 36.2643C188.342 37.2301 189.954 36.9438 190.538 36.0152C191.123 35.0866 190.995 33.8973 190.846 32.811Z" fill="#2F2E41"/>
<path d="M170.49 61.9378L149.512 62.3851C149.19 61.8299 148.713 61.38 148.139 61.0901C147.565 60.8003 146.919 60.683 146.279 60.7525C145.64 60.8221 145.034 61.0755 144.536 61.4819C144.039 61.8883 143.67 62.4301 143.476 63.0415C143.281 63.6529 143.269 64.3075 143.441 64.9257C143.613 65.5438 143.961 66.0988 144.443 66.5232C144.926 66.9475 145.522 67.2229 146.158 67.3159C146.795 67.4088 147.445 67.3153 148.029 67.0467C150.811 67.2044 172.578 70.2846 173.877 68.2995C175.195 66.2848 182.23 59.1743 182.23 59.1743L176.823 51.4985L170.49 61.9378Z" fill="#9E616A"/>
<path d="M175.601 37.9738C181.045 37.9738 185.458 33.5741 185.458 28.1469C185.458 22.7197 181.045 18.3201 175.601 18.3201C170.158 18.3201 165.745 22.7197 165.745 28.1469C165.745 33.5741 170.158 37.9738 175.601 37.9738Z" fill="#9E616A"/>
<path d="M191.388 47.055C190.227 44.7502 189.662 41.903 187.186 41.1558C185.514 40.6512 178.751 41.4074 177.227 42.2591C174.692 43.6758 176.989 46.3306 175.494 48.8149C173.868 51.5156 169.45 56.9355 167.824 59.6362C166.706 61.4928 170.471 66.9425 169.867 69.0224C169.262 71.1023 169.233 73.4366 170.263 75.3433C171.184 77.0499 169.851 78.5595 170.778 80.2633C171.741 82.0352 172.924 88.6602 172.027 90.4666L171.427 92.2626C177.385 92.6116 182.395 85.5145 188.316 84.7669C189.787 84.5812 191.314 84.3387 192.526 83.4875C194.311 82.2337 195.017 79.9587 195.458 77.8264C197.581 67.4037 196.148 56.5727 191.388 47.055V47.055Z" fill="#3F3D56"/>
<path d="M200.321 71.3904C199.491 69.1319 197.988 59.2569 197.988 59.2569L188.584 58.9819L193.182 70.288L180.636 87.7993C180.636 87.7993 180.659 87.8378 180.701 87.9064C180.041 87.8009 179.365 87.8963 178.761 88.1803C178.157 88.4643 177.652 88.9235 177.314 89.4979C176.976 90.0723 176.819 90.7351 176.865 91.3997C176.911 92.0642 177.157 92.6994 177.571 93.2223C177.985 93.7451 178.547 94.1312 179.185 94.3301C179.823 94.5289 180.506 94.5312 181.145 94.3367C181.783 94.1421 182.349 93.7598 182.766 93.2397C183.183 92.7197 183.434 92.0861 183.484 91.4219C183.53 91.4483 183.584 91.4579 183.637 91.4489C183.689 91.4399 183.737 91.413 183.772 91.3727C185.168 89.626 201.151 73.6491 200.321 71.3904Z" fill="#9E616A"/>
<path d="M201.277 65.154C200.414 61.5218 199.544 57.8698 198.089 54.4305C196.633 50.9912 194.55 47.7428 191.62 45.4192C190.683 44.6764 189.636 44.0207 188.461 43.7897C187.287 43.5588 185.964 43.8173 185.139 44.6821C183.819 46.0661 184.216 48.2875 184.7 50.1352C186.128 55.583 187.555 61.0308 188.982 66.4786C193.104 66.043 197.226 65.6074 201.348 65.1718L201.277 65.154Z" fill="#3F3D56"/>
<path d="M187.679 29.51C187.316 27.1327 186.937 24.7356 186.084 22.4972C185.231 20.2588 183.857 18.1623 181.885 16.8942C178.763 14.8866 174.721 15.2738 171.221 16.4286C168.514 17.3217 165.872 18.6791 163.963 20.8614C162.054 23.0437 160.982 26.1576 161.692 29.011C165.426 28.1315 169.159 27.252 172.893 26.3725L172.484 26.6605C173.71 27.2699 174.781 28.1499 175.615 29.2334C176.448 30.317 177.024 31.5758 177.297 32.9142C177.564 34.2688 177.526 35.6657 177.185 37.0038C176.844 38.3418 176.209 39.5876 175.326 40.651C177.872 39.7504 180.418 38.8498 182.965 37.9492C184.537 37.3933 186.219 36.7528 187.151 35.327C188.231 33.6739 187.98 31.4828 187.679 29.51Z" fill="#2F2E41"/>
</g>
<defs>
<clipPath id="clip0_182_1035">
<rect width="259" height="193" fill="white"/>
</clipPath>
</defs>
</svg>
