<svg width="249" height="175" viewBox="0 0 249 175" fill="none" xmlns="http://www.w3.org/2000/svg">
<g clip-path="url(#clip0_576_3105)">
<path d="M98.0973 109.286C98.1734 108.768 98.1351 108.24 97.985 107.738C97.8349 107.237 97.5766 106.774 97.2284 106.383C96.8802 105.992 96.4506 105.682 95.9697 105.476C95.4888 105.269 94.9684 105.17 94.4451 105.186L71.5102 81.9966L66.9795 88.3303L90.9484 109.133C91.0335 110.01 91.4375 110.826 92.0838 111.425C92.73 112.024 93.5737 112.366 94.4548 112.385C95.336 112.404 96.1935 112.099 96.8648 111.527C97.5362 110.956 97.9747 110.159 98.0973 109.286V109.286Z" fill="#FFB8B8"/>
<path d="M87.2337 95.8961L81.3799 101.743C81.0996 102.022 80.7209 102.179 80.3258 102.18C79.9307 102.182 79.5508 102.028 79.2682 101.752L63.2723 86.0258C62.7193 85.482 62.2795 84.834 61.9785 84.1192C61.6775 83.4044 61.5212 82.637 61.5186 81.8614C61.516 81.0858 61.6672 80.3174 61.9635 79.6006C62.2597 78.8838 62.6951 78.2329 63.2445 77.6854C63.7939 77.1379 64.4464 76.7048 65.1642 76.4111C65.8821 76.1174 66.651 75.9689 67.4266 75.9743C68.2022 75.9796 68.969 76.1386 69.6827 76.4422C70.3965 76.7457 71.0429 77.1878 71.5847 77.7427L87.247 93.787C87.5216 94.0702 87.6741 94.4498 87.6716 94.8442C87.6691 95.2387 87.5118 95.6164 87.2337 95.8961V95.8961Z" fill="#0AFF84"/>
<path d="M66.7037 67.1942C71.2252 67.1942 74.8907 63.5287 74.8907 59.0071C74.8907 54.4855 71.2252 50.8201 66.7037 50.8201C62.1821 50.8201 58.5166 54.4855 58.5166 59.0071C58.5166 63.5287 62.1821 67.1942 66.7037 67.1942Z" fill="#FFB8B8"/>
<path d="M39.04 157.116L41.113 160.638L55.6838 154.318L52.6241 149.12L39.04 157.116Z" fill="#FFB8B8"/>
<path d="M39.6604 155.541L43.7428 162.476L43.743 162.477C44.0846 163.057 44.3086 163.699 44.4021 164.366C44.4956 165.033 44.4569 165.712 44.288 166.364C44.1191 167.016 43.8235 167.629 43.418 168.166C43.0124 168.704 42.5049 169.157 41.9245 169.498L41.7808 169.583L35.0967 158.227L39.6604 155.541Z" fill="#2F2E41"/>
<path d="M63.0583 169.803H67.145L69.089 154.041L63.0576 154.041L63.0583 169.803Z" fill="#FFB8B8"/>
<path d="M62.0166 168.469L70.0646 168.469H70.0649C70.7384 168.469 71.4054 168.601 72.0276 168.859C72.6499 169.117 73.2153 169.495 73.6916 169.971C74.1678 170.447 74.5456 171.013 74.8034 171.635C75.0611 172.257 75.1938 172.924 75.1938 173.598V173.764L62.0169 173.765L62.0166 168.469Z" fill="#2F2E41"/>
<path d="M46.6289 160.253C46.3937 160.253 46.1618 160.198 45.9519 160.092C45.7421 159.986 45.5601 159.832 45.4209 159.642L41.4796 154.289C41.3594 154.126 41.2735 153.94 41.2272 153.743C41.1808 153.545 41.175 153.341 41.2101 153.141C41.2451 152.941 41.3203 152.751 41.431 152.581C41.5418 152.411 41.6858 152.265 41.8545 152.153L59.3926 140.439L48.8103 112.614L71.4402 114.481L72.2024 138.393C72.2739 140.57 71.752 142.726 70.6924 144.63C69.6329 146.534 68.0756 148.114 66.1873 149.201L47.3783 160.052C47.1506 160.184 46.8921 160.253 46.6289 160.253V160.253Z" fill="#2F2E41"/>
<path d="M63.182 166.603C62.7939 166.603 62.4212 166.451 62.1422 166.182C61.8632 165.912 61.6996 165.544 61.6858 165.157L60.8564 141.863L71.1259 141.322L70.3082 164.783C70.2962 165.155 70.1461 165.508 69.8873 165.776C69.6285 166.043 69.2795 166.204 68.9083 166.227L63.284 166.6C63.2499 166.602 63.2159 166.603 63.182 166.603Z" fill="#2F2E41"/>
<path d="M74.0593 119.107C71.4465 119.107 62.3204 116.168 59.1521 115.121C58.6782 115.5 56.0744 117.447 53.0351 117.091C51.1597 116.871 49.5088 115.809 48.128 113.936C45.079 109.798 48.8449 92.0518 52.5411 77.8935C53.2821 75.0317 55.1037 72.5686 57.6231 71.022C60.1425 69.4754 63.1633 68.9657 66.0507 69.6002V69.6002C68.1434 70.0622 70.0658 71.0986 71.6019 72.5929C73.1381 74.0873 74.2271 75.9804 74.7466 78.0596C75.4425 80.8922 74.8438 84.2243 74.4068 86.6576C74.2013 87.8015 74.0389 88.7051 74.0944 89.1491C74.3089 90.8653 75.5007 117.78 74.7344 118.929C74.6528 119.052 74.4168 119.107 74.0593 119.107Z" fill="#0AFF84"/>
<path d="M64.5009 119.155C64.9208 118.842 65.2671 118.441 65.5153 117.98C65.7636 117.519 65.9077 117.01 65.9377 116.487C65.9676 115.964 65.8825 115.442 65.6885 114.955C65.4945 114.469 65.1963 114.031 64.8148 113.673L64.9766 81.0581L57.2949 82.3372L59.5514 113.994C58.9916 114.675 58.701 115.538 58.7347 116.418C58.7683 117.299 59.1239 118.137 59.734 118.773C60.3441 119.409 61.1663 119.799 62.0449 119.87C62.9235 119.94 63.7973 119.686 64.5009 119.155V119.155Z" fill="#FFB8B8"/>
<path d="M66.2781 102.003H58.0042C57.609 102.002 57.2303 101.846 56.9496 101.567C56.6689 101.289 56.5089 100.912 56.5042 100.517L56.301 78.0861C56.294 77.3105 56.4408 76.5412 56.7329 75.8226C57.0251 75.1041 57.4568 74.4506 58.0031 73.9C58.5494 73.3494 59.1995 72.9125 59.9157 72.6147C60.6319 72.3169 61.4 72.1641 62.1757 72.165C62.9513 72.166 63.7191 72.3207 64.4345 72.6203C65.15 72.9198 65.799 73.3582 66.344 73.9102C66.8889 74.4622 67.319 75.1167 67.6094 75.8359C67.8998 76.5552 68.0447 77.3248 68.0358 78.1004L67.7781 100.52C67.7722 100.915 67.6117 101.291 67.3312 101.569C67.0507 101.846 66.6726 102.002 66.2781 102.003V102.003Z" fill="#0AFF84"/>
<path d="M64.6184 67.1599C60.8699 67.1667 57.3336 64.2039 56.684 60.5121C56.4515 59.0618 56.5563 57.5774 56.9905 56.1742C57.4618 54.5768 58.2702 53.099 59.361 51.8404C60.4518 50.5819 61.7998 49.5718 63.3141 48.8784C64.8283 48.1849 66.4737 47.8241 68.1392 47.8203C69.8047 47.8166 71.4516 48.1699 72.969 48.8566C73.9718 49.3103 74.9595 49.962 75.4186 50.9624C75.8778 51.9627 75.5904 53.3608 74.586 53.8109C73.9296 54.1051 73.1059 53.9606 72.5236 54.3828C71.6871 54.9893 71.9025 56.2799 72.276 57.2432C72.6495 58.2065 73.0719 59.3722 72.4458 60.194C71.8624 60.9598 70.6962 60.9361 69.7776 60.6478C68.8591 60.3596 67.9524 59.8769 66.9947 59.9751C65.5979 60.1183 64.5942 61.5077 64.4084 62.8994C64.2226 64.2912 64.6599 65.6824 65.0918 67.0185L64.6184 67.1599Z" fill="#2F2E41"/>
<path d="M167.065 75.5156C167.065 53.127 185.215 0 207.604 0C229.992 0 248.142 53.127 248.142 75.5156C248.142 86.267 243.871 96.578 236.268 104.18C228.666 111.783 218.355 116.054 207.604 116.054C196.852 116.054 186.541 111.783 178.939 104.18C171.336 96.578 167.065 86.267 167.065 75.5156V75.5156Z" fill="#0AFF84"/>
<path d="M207.604 174.14C207.515 174.14 207.431 174.105 207.368 174.043C207.306 173.98 207.271 173.895 207.271 173.807V34.0448C207.271 33.9564 207.306 33.8716 207.368 33.8091C207.431 33.7465 207.515 33.7114 207.604 33.7114C207.692 33.7114 207.777 33.7465 207.84 33.8091C207.902 33.8716 207.937 33.9564 207.937 34.0448V173.807C207.937 173.895 207.902 173.98 207.84 174.043C207.777 174.105 207.692 174.14 207.604 174.14Z" fill="#3F3D56"/>
<path d="M207.603 61.0269C207.56 61.027 207.516 61.0184 207.476 61.0016C207.435 60.9849 207.398 60.9603 207.368 60.9293L191.323 44.8844C191.261 44.8218 191.226 44.7372 191.227 44.6491C191.227 44.5611 191.262 44.4768 191.324 44.4145C191.386 44.3523 191.471 44.3172 191.559 44.3169C191.647 44.3166 191.731 44.3512 191.794 44.4131L207.839 60.4579C207.886 60.5045 207.917 60.5639 207.93 60.6286C207.943 60.6932 207.936 60.7602 207.911 60.8211C207.886 60.882 207.843 60.9341 207.788 60.9707C207.734 61.0073 207.669 61.0269 207.603 61.0269V61.0269Z" fill="#3F3D56"/>
<path d="M207.604 88.8036C207.538 88.8036 207.473 88.7841 207.419 88.7474C207.364 88.7108 207.321 88.6588 207.296 88.5979C207.271 88.5369 207.264 88.4699 207.277 88.4053C207.29 88.3406 207.322 88.2812 207.368 88.2346L234.238 61.3643C234.301 61.3025 234.385 61.268 234.473 61.2683C234.561 61.2686 234.646 61.3037 234.708 61.3659C234.77 61.4281 234.805 61.5125 234.806 61.6005C234.806 61.6885 234.771 61.773 234.71 61.8357L207.84 88.706C207.809 88.737 207.772 88.7616 207.731 88.7783C207.691 88.7951 207.648 88.8037 207.604 88.8036V88.8036Z" fill="#3F3D56"/>
<path d="M95.4182 109.096C100.736 107.894 106.762 112.054 106.948 117.639C107.001 119.21 106.541 120.859 105.332 121.928C104.334 122.81 102.849 123.255 101.559 122.824C99.0765 121.994 98.9439 118.535 100.276 116.688C102.079 114.186 105.651 113.759 108.485 114.056C111.951 114.42 115.244 115.939 118.008 118.022C123.541 122.191 127.064 128.582 129.916 134.755C132.835 141.089 134.958 147.76 136.236 154.615C136.396 155.476 136.544 156.34 136.678 157.205C136.715 157.332 136.802 157.439 136.918 157.503C137.034 157.566 137.17 157.582 137.298 157.546C137.423 157.506 137.528 157.419 137.592 157.304C137.655 157.188 137.672 157.053 137.638 156.926C136.471 149.445 134.315 142.152 131.226 135.238C128.241 128.548 124.476 121.607 118.488 117.142C115.503 114.916 111.978 113.367 108.247 113.036C105.107 112.757 101.388 113.421 99.4346 116.153C97.8939 118.308 98.0504 121.889 100.434 123.39C101.745 124.215 103.411 124.119 104.771 123.477C105.494 123.12 106.13 122.611 106.635 121.984C107.141 121.357 107.504 120.628 107.7 119.847C108.547 116.745 107.261 113.39 105.057 111.173C102.989 109.086 100.178 107.904 97.2401 107.885C96.5326 107.893 95.8281 107.977 95.1386 108.136C94.5107 108.278 94.7913 109.238 95.4182 109.096V109.096Z" fill="#CCCCCC"/>
<path d="M121.066 170.517L117.761 164.875L121.836 162.488L125.141 168.13V168.131C125.457 168.671 125.546 169.315 125.388 169.921C125.23 170.527 124.837 171.045 124.297 171.362C123.756 171.678 123.112 171.767 122.506 171.609C121.9 171.45 121.382 171.058 121.066 170.517Z" fill="#0AFF84"/>
<path d="M110.139 158.789C111.744 158.789 113.045 157.488 113.045 155.882C113.045 154.277 111.744 152.976 110.139 152.976C108.534 152.976 107.232 154.277 107.232 155.882C107.232 157.488 108.534 158.789 110.139 158.789Z" fill="#0AFF84"/>
<path d="M133.854 170.517L130.549 164.875L134.624 162.488L137.929 168.13C138.245 168.671 138.333 169.314 138.175 169.92C138.016 170.525 137.624 171.043 137.084 171.359C136.544 171.676 135.9 171.765 135.294 171.607C134.689 171.449 134.171 171.057 133.854 170.517V170.517Z" fill="#0AFF84"/>
<path d="M110.69 161.737C110.692 160.1 111.344 158.53 112.501 157.372C113.659 156.215 115.229 155.563 116.866 155.562H136.417C137.109 155.562 137.772 155.838 138.262 156.327C138.751 156.816 139.026 157.48 139.027 158.172V160.397C139.025 162.39 138.232 164.3 136.823 165.709C135.414 167.119 133.503 167.911 131.51 167.913H116.866C115.229 167.912 113.659 167.26 112.501 166.103C111.344 164.945 110.692 163.375 110.69 161.737V161.737Z" fill="#3F3D56"/>
<path d="M115.199 171.245V164.706H119.922V171.245C119.922 171.871 119.673 172.472 119.23 172.915C118.788 173.358 118.187 173.606 117.561 173.606C116.934 173.606 116.334 173.358 115.891 172.915C115.448 172.472 115.199 171.871 115.199 171.245Z" fill="#3F3D56"/>
<path d="M128.903 171.245V164.706H133.626V171.245C133.627 171.555 133.566 171.863 133.447 172.15C133.329 172.436 133.155 172.697 132.935 172.917C132.716 173.136 132.456 173.31 132.169 173.429C131.882 173.548 131.575 173.609 131.265 173.609C130.954 173.609 130.647 173.548 130.36 173.429C130.074 173.31 129.813 173.136 129.594 172.917C129.375 172.697 129.201 172.436 129.082 172.15C128.964 171.863 128.903 171.555 128.903 171.245V171.245Z" fill="#3F3D56"/>
<path d="M148.118 145.373C148.601 144.774 149.303 144.391 150.068 144.308C150.833 144.225 151.6 144.449 152.2 144.931C152.801 145.413 153.185 146.114 153.269 146.879C153.354 147.644 153.131 148.412 152.65 149.013L147.873 154.961L143.341 151.321L148.118 145.373Z" fill="#0AFF84"/>
<path d="M136.611 157.091L140.438 152.325C141.369 151.169 142.72 150.43 144.195 150.269C145.671 150.108 147.15 150.538 148.308 151.466L149.504 152.427C150.882 153.536 151.764 155.147 151.956 156.906C152.148 158.665 151.634 160.428 150.528 161.809L147.375 165.735C147.026 166.168 146.52 166.445 145.968 166.505C145.416 166.566 144.862 166.404 144.428 166.057L136.933 160.037C136.5 159.689 136.223 159.183 136.163 158.63C136.102 158.078 136.264 157.524 136.611 157.091V157.091Z" fill="#3F3D56"/>
<path d="M148.687 144.665C148.851 144.46 149.054 144.29 149.284 144.164C149.514 144.038 149.767 143.958 150.028 143.93C150.289 143.901 150.553 143.924 150.804 143.998C151.056 144.071 151.291 144.194 151.496 144.358C151.7 144.523 151.871 144.726 151.997 144.956C152.123 145.186 152.203 145.438 152.231 145.699C152.259 145.96 152.236 146.224 152.163 146.476C152.089 146.728 151.967 146.963 151.803 147.167L146.457 153.824L143.341 151.321L148.687 144.665Z" fill="#3F3D56"/>
<path d="M141.029 155.791L149.243 162.388C149.841 162.872 150.224 163.573 150.306 164.338C150.389 165.103 150.165 165.87 149.683 166.47C149.201 167.07 148.501 167.454 147.736 167.538C146.971 167.623 146.204 167.401 145.603 166.92L137.389 160.323L141.029 155.791Z" fill="#3F3D56"/>
<path d="M150.041 166.69C150.465 166.162 150.571 165.543 150.278 165.307C149.984 165.072 149.403 165.309 148.979 165.837C148.555 166.364 148.449 166.983 148.742 167.219C149.035 167.455 149.617 167.218 150.041 166.69Z" fill="#0AFF84"/>
<path d="M231.526 174.079H1.19173C1.10333 174.079 1.01854 174.043 0.95603 173.981C0.893517 173.918 0.858398 173.834 0.858398 173.745C0.858398 173.657 0.893517 173.572 0.95603 173.51C1.01854 173.447 1.10333 173.412 1.19173 173.412H231.526C231.615 173.412 231.699 173.447 231.762 173.51C231.824 173.572 231.86 173.657 231.86 173.745C231.86 173.834 231.824 173.918 231.762 173.981C231.699 174.043 231.615 174.079 231.526 174.079Z" fill="#CCCCCC"/>
</g>
<defs>
<clipPath id="clip0_576_3105">
<rect width="247.283" height="174.14" fill="white" transform="translate(0.858398)"/>
</clipPath>
</defs>
</svg>
